<svg width="708" height="422" viewBox="0 0 708 422" fill="none" xmlns="http://www.w3.org/2000/svg">
<rect y="47" width="708" height="1" fill="url(#paint0_linear_24_154)" fill-opacity="0.3"/>
<rect y="99" width="708" height="1" fill="url(#paint1_linear_24_154)" fill-opacity="0.3"/>
<rect y="151" width="708" height="1" fill="url(#paint2_linear_24_154)" fill-opacity="0.3"/>
<rect y="203" width="708" height="1" fill="url(#paint3_linear_24_154)" fill-opacity="0.3"/>
<rect y="255" width="708" height="1" fill="url(#paint4_linear_24_154)" fill-opacity="0.3"/>
<rect y="307" width="708" height="1" fill="url(#paint5_linear_24_154)" fill-opacity="0.3"/>
<rect y="359" width="708" height="1" fill="url(#paint6_linear_24_154)" fill-opacity="0.3"/>
<rect x="114" y="255" width="80" height="104" rx="16" fill="#E5E7EB"/>
<rect x="214" y="222" width="80" height="137" rx="16" fill="#E5E7EB"/>
<rect x="314" y="183" width="80" height="176" rx="16" fill="#E5E7EB"/>
<rect x="414" y="146" width="80" height="213" rx="16" fill="#E5E7EB"/>
<g filter="url(#filter0_d_24_154)">
<rect x="514" y="21" width="80" height="338" rx="16" fill="url(#paint7_linear_24_154)"/>
</g>
<path d="M247.299 246.055C268.13 241.852 291.923 232.832 316.213 220.699C360.829 198.413 391.909 158.874 408.618 123.792L392.989 117.041L453.323 70L462 146.854L443.311 138.781C430 170.585 399.61 209.495 368.868 229.253C341.658 246.742 311.382 256.642 275.604 258.645C253.332 259.891 219.533 258.02 193 250.451C212.153 251.455 230.222 249.501 247.299 246.055Z" fill="url(#paint8_linear_24_154)"/>
<g clip-path="url(#clip0_24_154)">
<g clip-path="url(#clip1_24_154)">
<path d="M135.195 395L135.178 393.84L139.52 389.27C141.031 387.67 141.752 386.809 141.752 385.631C141.752 384.33 140.645 383.469 139.221 383.469C137.709 383.469 136.742 384.436 136.742 385.859H135.248C135.23 383.609 136.971 382.098 139.273 382.098C141.576 382.098 143.229 383.645 143.229 385.631C143.229 387.055 142.561 388.162 140.311 390.482L137.393 393.488V393.594H143.457V395H135.195ZM149.566 395.176C146.736 395.176 145.119 392.803 145.119 388.637C145.119 384.506 146.771 382.098 149.566 382.098C152.361 382.098 154.013 384.506 154.013 388.637C154.013 392.803 152.378 395.176 149.566 395.176ZM149.566 393.77C151.394 393.77 152.466 391.924 152.466 388.637C152.466 385.35 151.394 383.469 149.566 383.469C147.738 383.469 146.648 385.35 146.648 388.637C146.648 391.924 147.72 393.77 149.566 393.77ZM160.262 382.273V395H158.663V383.926H158.593L155.499 385.982V384.383L158.663 382.273H160.262ZM167.725 395.176C165.51 395.141 163.084 393.84 163.084 389.129C163.084 384.629 164.93 382.098 167.918 382.098C170.15 382.098 171.715 383.469 172.049 385.473H170.484C170.186 384.348 169.342 383.504 167.918 383.504C165.826 383.504 164.578 385.297 164.578 388.355H164.736C165.475 387.301 166.635 386.668 168.006 386.668C170.274 386.668 172.154 388.426 172.154 390.887C172.154 393.277 170.397 395.193 167.725 395.176ZM167.725 393.787C169.377 393.787 170.608 392.486 170.625 390.904C170.608 389.34 169.43 388.057 167.76 388.057C166.09 388.057 164.807 389.41 164.789 390.922C164.789 392.416 166.02 393.787 167.725 393.787Z" fill="#999999"/>
</g>
<g clip-path="url(#clip2_24_154)">
<path d="M235.695 395L235.678 393.84L240.02 389.27C241.531 387.67 242.252 386.809 242.252 385.631C242.252 384.33 241.145 383.469 239.721 383.469C238.209 383.469 237.242 384.436 237.242 385.859H235.748C235.73 383.609 237.471 382.098 239.773 382.098C242.076 382.098 243.729 383.645 243.729 385.631C243.729 387.055 243.061 388.162 240.811 390.482L237.893 393.488V393.594H243.957V395H235.695ZM250.066 395.176C247.236 395.176 245.619 392.803 245.619 388.637C245.619 384.506 247.271 382.098 250.066 382.098C252.861 382.098 254.513 384.506 254.513 388.637C254.513 392.803 252.878 395.176 250.066 395.176ZM250.066 393.77C251.894 393.77 252.966 391.924 252.966 388.637C252.966 385.35 251.894 383.469 250.066 383.469C248.238 383.469 247.148 385.35 247.148 388.637C247.148 391.924 248.22 393.77 250.066 393.77ZM260.762 382.273V395H259.163V383.926H259.093L255.999 385.982V384.383L259.163 382.273H260.762ZM264.199 395L270.035 383.768V383.68H263.303V382.273H271.67V383.75L265.852 395H264.199Z" fill="#999999"/>
</g>
<g clip-path="url(#clip3_24_154)">
<path d="M335.195 395L335.178 393.84L339.52 389.27C341.031 387.67 341.752 386.809 341.752 385.631C341.752 384.33 340.645 383.469 339.221 383.469C337.709 383.469 336.742 384.436 336.742 385.859H335.248C335.23 383.609 336.971 382.098 339.273 382.098C341.576 382.098 343.229 383.645 343.229 385.631C343.229 387.055 342.561 388.162 340.311 390.482L337.393 393.488V393.594H343.457V395H335.195ZM349.566 395.176C346.736 395.176 345.119 392.803 345.119 388.637C345.119 384.506 346.771 382.098 349.566 382.098C352.361 382.098 354.013 384.506 354.013 388.637C354.013 392.803 352.378 395.176 349.566 395.176ZM349.566 393.77C351.394 393.77 352.466 391.924 352.466 388.637C352.466 385.35 351.394 383.469 349.566 383.469C347.738 383.469 346.648 385.35 346.648 388.637C346.648 391.924 347.72 393.77 349.566 393.77ZM360.262 382.273V395H358.663V383.926H358.593L355.499 385.982V384.383L358.663 382.273H360.262ZM367.549 395.176C364.877 395.176 363.014 393.699 363.031 391.625C363.014 389.973 364.156 388.619 365.615 388.391V388.32C364.35 388.021 363.524 386.861 363.524 385.473C363.524 383.521 365.229 382.098 367.549 382.098C369.869 382.098 371.574 383.521 371.592 385.473C371.574 386.861 370.731 388.021 369.483 388.32V388.391C370.924 388.619 372.066 389.973 372.084 391.625C372.066 393.699 370.203 395.176 367.549 395.176ZM367.549 393.787C369.377 393.787 370.502 392.873 370.502 391.537C370.502 390.131 369.254 389.094 367.549 389.094C365.844 389.094 364.578 390.131 364.613 391.537C364.578 392.873 365.721 393.787 367.549 393.787ZM367.549 387.758C368.99 387.758 370.045 386.879 370.045 385.596C370.045 384.33 369.043 383.469 367.549 383.469C366.037 383.469 365.053 384.33 365.053 385.596C365.053 386.879 366.09 387.758 367.549 387.758Z" fill="#999999"/>
</g>
<g clip-path="url(#clip4_24_154)">
<path d="M435.195 395L435.178 393.84L439.52 389.27C441.031 387.67 441.752 386.809 441.752 385.631C441.752 384.33 440.645 383.469 439.221 383.469C437.709 383.469 436.742 384.436 436.742 385.859H435.248C435.23 383.609 436.971 382.098 439.273 382.098C441.576 382.098 443.229 383.645 443.229 385.631C443.229 387.055 442.561 388.162 440.311 390.482L437.393 393.488V393.594H443.457V395H435.195ZM449.566 395.176C446.736 395.176 445.119 392.803 445.119 388.637C445.119 384.506 446.771 382.098 449.566 382.098C452.361 382.098 454.013 384.506 454.013 388.637C454.013 392.803 452.378 395.176 449.566 395.176ZM449.566 393.77C451.394 393.77 452.466 391.924 452.466 388.637C452.466 385.35 451.394 383.469 449.566 383.469C447.738 383.469 446.648 385.35 446.648 388.637C446.648 391.924 447.72 393.77 449.566 393.77ZM460.262 382.273V395H458.663V383.926H458.593L455.499 385.982V384.383L458.663 382.273H460.262ZM467.531 382.098C469.729 382.115 472.154 383.434 472.154 388.127C472.154 392.645 470.309 395.176 467.32 395.176C465.088 395.176 463.506 393.805 463.19 391.783H464.754C465.035 392.926 465.897 393.77 467.32 393.77C469.395 393.77 470.66 391.977 470.678 388.883H470.502C469.764 389.938 468.604 390.57 467.25 390.57C464.965 390.57 463.084 388.83 463.084 386.369C463.084 383.996 464.824 382.08 467.531 382.098ZM467.531 383.486C465.861 383.486 464.613 384.787 464.631 386.352C464.631 387.934 465.809 389.182 467.479 389.182C469.131 389.182 470.432 387.811 470.432 386.316C470.432 384.857 469.219 383.486 467.531 383.486Z" fill="#999999"/>
</g>
<g clip-path="url(#clip5_24_154)">
<path d="M534.195 395L534.178 393.84L538.52 389.27C540.031 387.67 540.752 386.809 540.752 385.631C540.752 384.33 539.645 383.469 538.221 383.469C536.709 383.469 535.742 384.436 535.742 385.859H534.248C534.23 383.609 535.971 382.098 538.273 382.098C540.576 382.098 542.229 383.645 542.229 385.631C542.229 387.055 541.561 388.162 539.311 390.482L536.393 393.488V393.594H542.457V395H534.195ZM548.566 395.176C545.736 395.176 544.119 392.803 544.119 388.637C544.119 384.506 545.771 382.098 548.566 382.098C551.361 382.098 553.013 384.506 553.013 388.637C553.013 392.803 551.378 395.176 548.566 395.176ZM548.566 393.77C550.394 393.77 551.466 391.924 551.466 388.637C551.466 385.35 550.394 383.469 548.566 383.469C546.738 383.469 545.648 385.35 545.648 388.637C545.648 391.924 546.72 393.77 548.566 393.77ZM554.762 395L554.745 393.84L559.087 389.27C560.598 387.67 561.319 386.809 561.319 385.631C561.319 384.33 560.212 383.469 558.788 383.469C557.276 383.469 556.309 384.436 556.309 385.859H554.815C554.798 383.609 556.538 382.098 558.841 382.098C561.143 382.098 562.796 383.645 562.796 385.631C562.796 387.055 562.128 388.162 559.878 390.482L556.96 393.488V393.594H563.024V395H554.762ZM569.133 395.176C566.303 395.176 564.686 392.803 564.686 388.637C564.686 384.506 566.338 382.098 569.133 382.098C571.928 382.098 573.58 384.506 573.58 388.637C573.58 392.803 571.945 395.176 569.133 395.176ZM569.133 393.77C570.961 393.77 572.033 391.924 572.033 388.637C572.033 385.35 570.961 383.469 569.133 383.469C567.305 383.469 566.215 385.35 566.215 388.637C566.215 391.924 567.287 393.77 569.133 393.77Z" fill="#999999"/>
</g>
</g>
<defs>
<filter id="filter0_d_24_154" x="451" y="0" width="164" height="422" filterUnits="userSpaceOnUse" color-interpolation-filters="sRGB">
<feFlood flood-opacity="0" result="BackgroundImageFix"/>
<feColorMatrix in="SourceAlpha" type="matrix" values="0 0 0 0 0 0 0 0 0 0 0 0 0 0 0 0 0 0 127 0" result="hardAlpha"/>
<feOffset dx="-21" dy="21"/>
<feGaussianBlur stdDeviation="21"/>
<feComposite in2="hardAlpha" operator="out"/>
<feColorMatrix type="matrix" values="0 0 0 0 0.666667 0 0 0 0 0.690196 0 0 0 0 0.737255 0 0 0 0.6 0"/>
<feBlend mode="normal" in2="BackgroundImageFix" result="effect1_dropShadow_24_154"/>
<feBlend mode="normal" in="SourceGraphic" in2="effect1_dropShadow_24_154" result="shape"/>
</filter>
<linearGradient id="paint0_linear_24_154" x1="0" y1="47.5" x2="708" y2="47.5" gradientUnits="userSpaceOnUse">
<stop stop-color="#636365" stop-opacity="0"/>
<stop offset="0.2" stop-color="#636365"/>
<stop offset="0.5" stop-color="#636365"/>
<stop offset="0.8" stop-color="#636365"/>
<stop offset="1" stop-color="#C6C7CB" stop-opacity="0"/>
</linearGradient>
<linearGradient id="paint1_linear_24_154" x1="0" y1="99.5" x2="708" y2="99.5" gradientUnits="userSpaceOnUse">
<stop stop-color="#636365" stop-opacity="0"/>
<stop offset="0.2" stop-color="#636365"/>
<stop offset="0.5" stop-color="#636365"/>
<stop offset="0.8" stop-color="#636365"/>
<stop offset="1" stop-color="#C6C7CB" stop-opacity="0"/>
</linearGradient>
<linearGradient id="paint2_linear_24_154" x1="0" y1="151.5" x2="708" y2="151.5" gradientUnits="userSpaceOnUse">
<stop stop-color="#636365" stop-opacity="0"/>
<stop offset="0.2" stop-color="#636365"/>
<stop offset="0.5" stop-color="#636365"/>
<stop offset="0.8" stop-color="#636365"/>
<stop offset="1" stop-color="#C6C7CB" stop-opacity="0"/>
</linearGradient>
<linearGradient id="paint3_linear_24_154" x1="0" y1="203.5" x2="708" y2="203.5" gradientUnits="userSpaceOnUse">
<stop stop-color="#636365" stop-opacity="0"/>
<stop offset="0.2" stop-color="#636365"/>
<stop offset="0.5" stop-color="#636365"/>
<stop offset="0.8" stop-color="#636365"/>
<stop offset="1" stop-color="#C6C7CB" stop-opacity="0"/>
</linearGradient>
<linearGradient id="paint4_linear_24_154" x1="0" y1="255.5" x2="708" y2="255.5" gradientUnits="userSpaceOnUse">
<stop stop-color="#636365" stop-opacity="0"/>
<stop offset="0.2" stop-color="#636365"/>
<stop offset="0.5" stop-color="#636365"/>
<stop offset="0.8" stop-color="#636365"/>
<stop offset="1" stop-color="#C6C7CB" stop-opacity="0"/>
</linearGradient>
<linearGradient id="paint5_linear_24_154" x1="0" y1="307.5" x2="708" y2="307.5" gradientUnits="userSpaceOnUse">
<stop stop-color="#636365" stop-opacity="0"/>
<stop offset="0.2" stop-color="#636365"/>
<stop offset="0.5" stop-color="#636365"/>
<stop offset="0.8" stop-color="#636365"/>
<stop offset="1" stop-color="#C6C7CB" stop-opacity="0"/>
</linearGradient>
<linearGradient id="paint6_linear_24_154" x1="0" y1="359.5" x2="708" y2="359.5" gradientUnits="userSpaceOnUse">
<stop stop-color="#636365" stop-opacity="0"/>
<stop offset="0.2" stop-color="#636365"/>
<stop offset="0.5" stop-color="#636365"/>
<stop offset="0.8" stop-color="#636365"/>
<stop offset="1" stop-color="#C6C7CB" stop-opacity="0"/>
</linearGradient>
<linearGradient id="paint7_linear_24_154" x1="554" y1="359" x2="554" y2="21" gradientUnits="userSpaceOnUse">
<stop stop-color="#3A68AE"/>
<stop offset="1" stop-color="#1C4A90"/>
</linearGradient>
<linearGradient id="paint8_linear_24_154" x1="447.059" y1="84.7589" x2="417.043" y2="288.273" gradientUnits="userSpaceOnUse">
<stop offset="0.339127" stop-color="#1C4A90"/>
<stop offset="1" stop-color="#1C4A90" stop-opacity="0"/>
</linearGradient>
<clipPath id="clip0_24_154">
<rect width="480" height="20" fill="white" transform="translate(114 379)"/>
</clipPath>
<clipPath id="clip1_24_154">
<rect width="80" height="20" fill="white" transform="translate(114 379)"/>
</clipPath>
<clipPath id="clip2_24_154">
<rect width="80" height="20" fill="white" transform="translate(214 379)"/>
</clipPath>
<clipPath id="clip3_24_154">
<rect width="80" height="20" fill="white" transform="translate(314 379)"/>
</clipPath>
<clipPath id="clip4_24_154">
<rect width="80" height="20" fill="white" transform="translate(414 379)"/>
</clipPath>
<clipPath id="clip5_24_154">
<rect width="80" height="20" fill="white" transform="translate(514 379)"/>
</clipPath>
</defs>
</svg>
