<svg xmlns="http://www.w3.org/2000/svg" viewBox="0 0 53.28 53.28"><defs><style>.cls-1{fill:#0a2844;}.cls-2{fill:#fff;}</style></defs><g id="Layer_2" data-name="Layer 2"><g id="Layer_1-2" data-name="Layer 1"><rect class="cls-1" width="53.28" height="53.28" rx="8.29"/><g id="Group_2" data-name="Group 2"><path id="Vector_11" data-name="Vector 11" class="cls-2" d="M44.93,29.53a3,3,0,1,0-3-3A3,3,0,0,0,44.93,29.53Z"/><path id="Vector_12" data-name="Vector 12" class="cls-2" d="M27.61,22.43a9,9,0,0,1,7.68-4.22,9.05,9.05,0,0,1,6.79,3l4.45-1.92a13.7,13.7,0,0,0-11.24-5.73A13.86,13.86,0,0,0,26.15,17a9,9,0,0,1,1.46,5.26v.2Z"/><path id="Vector_13" data-name="Vector 13" class="cls-2" d="M42.25,31.87a9,9,0,0,1-7,3.2,8.66,8.66,0,0,1-8.86-8.43,8.15,8.15,0,0,1-4.28,3.29,13.5,13.5,0,0,0,13.14,9.78,13.7,13.7,0,0,0,11.42-6Z"/><path id="Vector_14" data-name="Vector 14" class="cls-2" d="M26.78,39l-8-9.35c4.42-.29,7.6-2.95,7.6-7.33,0-5.54-3.87-8.06-9.75-8.06H5.34V39h5V18.83h6.18c2.92,0,4.67,1.08,4.67,3.53s-1.79,3.52-4.67,3.52H10.3l3.87,5L20.53,39Z"/></g></g></g></svg>