<svg width="586" height="234" viewBox="0 0 586 234" fill="none" xmlns="http://www.w3.org/2000/svg">
<path d="M39.1188 7.42188V8.63477H42.1071V6.13867H44.3395V17.7754H42.1071V13.8555H39.1188V15.209H31.5251V7.42188H39.1188ZM33.6872 21.8359V16.668H35.9548V20.043H44.6735V21.8359H33.6872ZM33.7575 13.4688H36.9216V9.19727H33.7575V13.4688ZM39.1188 12.0801H42.1071V10.4453H39.1188V12.0801ZM59.5362 6.12109V14.875H57.3038V11.5352H54.7725V9.70703H57.3038V6.12109H59.5362ZM45.9659 13.3984C48.4883 12.5547 49.6924 10.6211 49.8067 8.66992H46.5987V6.8418H55.2823V8.66992H52.1094C52.2061 10.4541 53.3575 12.2998 55.7745 13.0996L54.667 14.8223C52.9004 14.2422 51.6788 13.0908 50.9844 11.6582C50.2725 13.2578 48.9981 14.541 47.1084 15.1562L45.9659 13.3984ZM48.8663 21.9414V15.4902H51.0811V17.002H57.3038V15.4902H59.5362V21.9414H48.8663ZM51.0811 20.1484H57.3038V18.7246H51.0811V20.1484ZM79.6287 13.3809V15.1914H73.4412V16.3779C76.2185 16.5801 77.8709 17.582 77.8884 19.2344C77.8709 21.0889 75.7703 22.126 72.3162 22.1172C68.8093 22.126 66.7088 21.0889 66.7088 19.2344C66.7088 17.5732 68.3699 16.5713 71.2088 16.3691V15.1914H65.0388V13.3809H79.6287ZM65.6892 11.0254C68.6511 10.7617 70.2859 9.67188 70.6902 8.56445H66.3748V6.80664H78.3103V8.56445H73.9597C74.3465 9.68066 75.9724 10.7617 79.0134 11.0254L78.2224 12.7832C75.199 12.4932 73.1687 11.3594 72.3162 9.80371C71.4724 11.3506 69.4597 12.502 66.4275 12.7832L65.6892 11.0254ZM68.9939 19.2344C68.9851 20.0078 70.1013 20.4297 72.3162 20.4297C74.4871 20.4297 75.6297 20.0078 75.6384 19.2344C75.6297 18.4258 74.4871 18.0391 72.3162 18.0215C70.1013 18.0391 68.9851 18.4258 68.9939 19.2344ZM90.229 10.4805C90.2202 13.0645 91.5561 15.833 94.2368 16.9492L93.0239 18.707C91.1431 17.9072 89.8423 16.3164 89.1216 14.3828C88.4009 16.4834 87.0737 18.2412 85.1841 19.1113L83.9009 17.3359C86.5552 16.1494 87.9263 13.1875 87.9263 10.4805V9.49609H84.5337V7.66797H93.5688V9.49609H90.229V10.4805ZM95.1509 22.1172V6.12109H97.4184V22.1172H95.1509ZM112.773 6.13867V18.2148H110.523V16.9492H107.465V15.4199H110.523V6.13867H112.773ZM99.1678 13.2227C102.095 13.2051 106.05 13.1611 109.433 12.748L109.556 14.3477C108.291 14.5586 106.981 14.708 105.689 14.8047V17.8457H103.439V20.043H113.125V21.8359H101.207V17.0547H103.439V14.9365C102.007 14.9893 100.644 14.998 99.4315 14.998L99.1678 13.2227ZM100.346 9.54883C100.346 7.84375 101.989 6.6748 104.371 6.68359C106.691 6.6748 108.352 7.84375 108.361 9.54883C108.352 11.2627 106.691 12.3701 104.371 12.3613C101.989 12.3701 100.346 11.2627 100.346 9.54883ZM102.473 9.54883C102.464 10.3223 103.228 10.7529 104.371 10.7441C105.443 10.7529 106.217 10.3223 106.234 9.54883C106.217 8.75781 105.443 8.31836 104.371 8.31836C103.228 8.31836 102.464 8.75781 102.473 9.54883ZM120.323 10.4805C120.315 12.915 121.615 15.7275 124.243 16.9492L122.995 18.707C121.211 17.8896 119.946 16.2549 119.225 14.3389C118.513 16.4482 117.195 18.2412 115.349 19.1113L114.048 17.3359C116.711 16.0967 118.056 13.126 118.073 10.4805V9.49609H114.681V7.66797H123.54V9.49609H120.323V10.4805ZM124.788 22.1172V6.12109H127.038V12.2207H129.394V14.1016H127.038V22.1172H124.788ZM144.239 13.293V14.9629H129.596V13.293H144.239ZM131.266 17.3008V15.7539H142.481V19.5332H133.516V20.4473H142.956V21.9766H131.284V18.1094H140.266V17.3008H131.266ZM131.389 7.93164V6.40234H142.463V10.1641H133.657V11.0254H142.745V12.5371H131.424V8.74023H140.213V7.93164H131.389ZM157.722 7.59766V9.39062H156.298V16.3691C156.949 16.3164 157.581 16.2549 158.197 16.1758L158.32 17.793C155.041 18.3643 151.385 18.4258 148.634 18.4434L148.388 16.6152L150.216 16.6064V9.39062H148.792V7.59766H157.722ZM152.378 16.5713C152.958 16.5537 153.547 16.5273 154.136 16.501V9.39062H152.378V16.5713ZM158.97 22.1172V6.12109H161.22V12.2031H163.575V14.0312H161.22V22.1172H158.97ZM168.296 7C170.774 6.99121 172.655 8.62598 172.655 10.8848C172.655 13.1963 170.774 14.8135 168.296 14.8047C165.791 14.8135 163.892 13.1963 163.901 10.8848C163.892 8.62598 165.791 6.99121 168.296 7ZM165.712 17.9512V16.1406H176.487V22.1348H174.237V17.9512H165.712ZM166.116 10.8848C166.098 12.1768 167.039 12.915 168.296 12.9062C169.526 12.915 170.466 12.1768 170.475 10.8848C170.466 9.63672 169.526 8.90723 168.296 8.91602C167.039 8.90723 166.098 9.63672 166.116 10.8848ZM174.237 15.4727V6.12109H176.487V9.88281H178.649V11.7109H176.487V15.4727H174.237ZM191.613 6.12109V12.3789H193.969V14.2246H191.613V22.1172H189.398V6.12109H191.613ZM178.904 10.3047V8.51172H182.525V6.36719H184.775V8.51172H188.309V10.3047H178.904ZM179.555 15.0156C179.546 12.7832 181.286 11.1924 183.65 11.2012C185.979 11.1924 187.729 12.7832 187.729 15.0156C187.729 17.248 185.979 18.8213 183.65 18.8301C181.286 18.8213 179.546 17.248 179.555 15.0156ZM181.699 15.0156C181.699 16.2549 182.517 16.9932 183.65 16.9844C184.767 16.9932 185.584 16.2549 185.584 15.0156C185.584 13.7852 184.767 13.0293 183.65 13.0117C182.517 13.0293 181.699 13.7852 181.699 15.0156ZM207.179 10.4805V12.2383H195.999V6.68359H198.232V10.4805H207.179ZM194.171 15.7188V13.9609H208.814V15.7188H194.171ZM195.859 21.7656V17.0195H198.109V19.9727H207.285V21.7656H195.859ZM226.656 6.13867V16.7559H224.424V12.1855H221.594V10.3574H224.424V6.13867H226.656ZM213.35 14.2949C216.98 13.2227 218.72 11.4473 219.054 9.12695H214.211V7.35156H221.471C221.471 11.6758 219.177 14.541 214.316 16.0527L213.35 14.2949ZM215.037 20.2891C218.439 19.7969 220.117 17.9248 220.135 16.1055V15.543H222.35V16.1055C222.35 17.9248 224.037 19.7529 227.412 20.2715L226.516 22.0469C224.002 21.6338 222.191 20.5088 221.233 18.9531C220.258 20.5088 218.43 21.6426 215.916 22.0645L215.037 20.2891ZM236.527 7.43945V15.1211H228.845V7.43945H236.527ZM230.691 21.8359V16.6504H232.923V20.043H241.642V21.8359H230.691ZM231.06 13.3633H234.312V9.23242H231.06V13.3633ZM238.812 17.793V6.12109H241.062V10.7266H243.224V12.5723H241.062V17.793H238.812ZM250.862 6.92969C254.237 6.93848 256.883 8.7666 256.891 11.5352C256.883 14.3301 254.237 16.1494 250.862 16.1406C247.478 16.1494 244.85 14.3301 244.85 11.5352C244.85 8.7666 247.478 6.93848 250.862 6.92969ZM243.567 20.166V18.3555H258.21V20.166H243.567ZM247.03 11.5352C247.021 13.2754 248.638 14.3125 250.862 14.3125C253.068 14.3125 254.668 13.2754 254.677 11.5352C254.668 9.82129 253.068 8.74023 250.862 8.75781C248.638 8.74023 247.021 9.82129 247.03 11.5352ZM273.406 18.4961V20.3418H258.764V18.4961H264.934V16.0879H260.451V10.709H269.504V8.95117H260.434V7.1582H271.719V12.4668H262.701V14.2598H272.088V16.0879H267.166V18.4961H273.406ZM286.951 10.4805V12.2383H275.771V6.68359H278.003V10.4805H286.951ZM273.943 15.7188V13.9609H288.585V15.7188H273.943ZM275.63 21.7656V17.0195H277.88V19.9727H287.056V21.7656H275.63ZM307.571 15.3496V17.1074H301.313V22.1172H299.098V17.1074H292.928V15.3496H307.571ZM294.651 13.8027V6.73633H296.865V8.58203H303.58V6.73633H305.83V13.8027H294.651ZM296.865 12.0098H303.58V10.3398H296.865V12.0098ZM321.414 6.70117V8.47656H317.037C317.379 9.64551 319.041 10.7705 322.117 11.0605L321.308 12.8184C318.302 12.5107 316.272 11.3682 315.42 9.80371C314.576 11.3682 312.581 12.5107 309.584 12.8184L308.793 11.0605C311.825 10.7705 313.468 9.63672 313.82 8.47656H309.478V6.70117H321.414ZM308.142 15.7012V13.9082H314.312V11.8164H316.527V13.9082H322.732V15.7012H308.142ZM309.759 18.6367V16.8438H320.957V22.1172H318.724V18.6367H309.759ZM331.056 8.56445V10.3398H323.321V8.56445H326.099V6.56055H328.313V8.56445H331.056ZM323.69 14.8574C323.69 12.6338 325.185 11.0693 327.224 11.0605C329.271 11.0693 330.73 12.6338 330.739 14.8574C330.73 17.0898 329.271 18.6719 327.224 18.6719C325.185 18.6719 323.69 17.0898 323.69 14.8574ZM325.659 14.8574C325.659 16.0791 326.292 16.7734 327.224 16.7734C328.12 16.7734 328.762 16.0791 328.77 14.8574C328.762 13.6533 328.12 12.9238 327.224 12.9238C326.292 12.9238 325.659 13.6533 325.659 14.8574ZM331.653 21.4316V6.4375H333.745V12.625H335.046V6.12109H337.173V22.1172H335.046V14.418H333.745V21.4316H331.653ZM344.582 9.74219C344.591 12.748 345.804 15.6748 348.467 16.8262L347.096 18.6191C345.321 17.7578 344.125 16.1582 343.457 14.1807C342.772 16.2812 341.541 18.0039 339.713 18.9004L338.307 17.0723C341.049 15.833 342.297 12.748 342.315 9.74219V7.35156H344.582V9.74219ZM346.674 12.959V11.1484H349.821V6.12109H352.035V22.1523H349.821V12.959H346.674Z" fill="#1C4A90"/>
<path d="M534.793 21.1953C531.844 21.1953 529.695 19.457 529.637 17.0156H532.488C532.547 18.1289 533.562 18.8711 534.793 18.8711C536.258 18.8711 537.293 17.8359 537.293 16.3711C537.293 14.8672 536.238 13.832 534.754 13.8125C533.699 13.8125 532.957 14.2031 532.527 15.0039H529.871L530.633 6.85938H539.344V9.26172H533.055L532.664 12.8359H532.781C533.309 12.1328 534.363 11.6445 535.613 11.6445C538.211 11.6445 540.145 13.5781 540.145 16.293C540.145 19.1445 537.977 21.1953 534.793 21.1953ZM547.83 6.85938V21H544.881V9.65234H544.803L541.561 11.6836V9.08594L545.057 6.85938H547.83ZM551.669 21.1758C550.751 21.1758 550.009 20.4336 550.028 19.5352C550.009 18.6367 550.751 17.9141 551.669 17.9141C552.528 17.9141 553.29 18.6367 553.29 19.5352C553.29 20.4336 552.528 21.1758 551.669 21.1758ZM560.077 21.1953C557.148 21.1758 554.374 19.4375 554.374 14.2617C554.374 9.49609 556.659 6.66406 560.195 6.66406C563.046 6.66406 564.98 8.46094 565.273 10.7852H562.382C562.148 9.78906 561.327 9.18359 560.195 9.18359C558.28 9.18359 557.265 10.9219 557.245 13.6953H557.382C558.027 12.4453 559.433 11.7031 560.995 11.7031C563.534 11.7031 565.429 13.6172 565.429 16.2734C565.429 19.1445 563.261 21.2148 560.077 21.1953ZM560.058 18.8711C561.503 18.8711 562.577 17.7773 562.577 16.3516C562.577 14.9453 561.542 13.832 560.097 13.832C558.652 13.832 557.558 14.9648 557.538 16.3516C557.558 17.7383 558.612 18.8711 560.058 18.8711ZM574.016 15.3438C572.328 15.3438 571.406 14.1094 571.406 12.3281C571.406 10.5312 572.359 9.29688 574.016 9.29688C575.719 9.29688 576.609 10.5312 576.625 12.3281C576.609 14.125 575.688 15.3438 574.016 15.3438ZM574.016 13.9531C574.688 13.9531 575.016 13.2969 575.031 12.3281C575.016 11.3594 574.719 10.6875 574.016 10.6875C573.344 10.6875 573 11.375 573 12.3281C573 13.2969 573.359 13.9531 574.016 13.9531ZM581.641 21.375C579.969 21.375 579.047 20.1406 579.047 18.3594C579.047 16.5625 580 15.3281 581.641 15.3281C583.344 15.3281 584.25 16.5625 584.266 18.3594C584.25 20.1562 583.328 21.375 581.641 21.375ZM581.641 19.9844C582.328 19.9844 582.656 19.3438 582.672 18.3594C582.656 17.3906 582.359 16.7188 581.641 16.7344C580.984 16.7344 580.641 17.4062 580.641 18.3594C580.641 19.3438 581 19.9844 581.641 19.9844ZM573.031 21L580.812 9.6875H582.562L574.781 21H573.031Z" fill="#1C4A90"/>
<rect x="26" y="42" width="560" height="16" rx="8" fill="#F4F5F7"/>
<g filter="url(#filter0_d_24_650)">
<rect x="26" y="38" width="353" height="24" rx="12" fill="url(#paint0_linear_24_650)"/>
</g>
<path d="M42.0156 101.375V115.297H40.7812V101.375H42.0156ZM31.0781 107.297C31.0859 104.344 32.5547 102.461 34.625 102.453C36.6875 102.461 38.1797 104.344 38.1719 107.297C38.1797 110.258 36.6875 112.133 34.625 112.125C32.5547 112.133 31.0859 110.258 31.0781 107.297ZM32.2656 107.297C32.2656 109.555 33.2344 111.039 34.625 111.031C36.0234 111.039 36.9844 109.555 36.9844 107.297C36.9844 105.039 36.0234 103.555 34.625 103.547C33.2344 103.555 32.2656 105.039 32.2656 107.297ZM50.6644 102.234V106.125H45.8831V108.281C48.4925 108.289 49.8441 108.234 51.4769 107.938L51.6019 108.953C49.8753 109.234 48.4613 109.281 45.6488 109.281H44.6644V105.188H49.4456V103.219H44.6331V102.234H50.6644ZM46.2269 111.672V110.672H55.5863V115.297H54.3519V111.672H46.2269ZM51.5863 107.344V106.328H54.3519V104.453H51.5863V103.453H54.3519V101.391H55.5863V109.922H54.3519V107.344H51.5863ZM62.4694 105.109C62.4616 107.625 64.0788 110.156 66.0944 111.078L65.36 112.078C63.7819 111.266 62.4772 109.609 61.86 107.633C61.2428 109.711 59.9381 111.492 58.36 112.328L57.5631 111.344C59.6022 110.344 61.2116 107.672 61.2194 105.109V102.578H62.4694V105.109ZM64.5788 107.125V106.125H67.8756V101.375H69.0944V115.297H67.8756V107.125H64.5788ZM86.6419 101.375V115.266H85.4388V108.078H83.4388V114.547H82.2825V101.688H83.4388V107.031H85.4388V101.375H86.6419ZM75.4856 111.672V103.078H76.7044V110.578C78.0794 110.57 79.5638 110.469 81.2513 110.125L81.4075 111.219C79.47 111.57 77.8763 111.672 76.345 111.672H75.4856ZM100.947 108.25V109.266H88.2906V108.25H91.4313V106.289C90.3219 105.859 89.6969 105.156 89.6969 104.219C89.6969 102.586 91.5719 101.648 94.6188 101.641C97.6422 101.648 99.5172 102.586 99.525 104.219C99.5172 105.148 98.9 105.852 97.8063 106.289V108.25H100.947ZM89.8219 112.781C89.8141 111.195 91.6031 110.32 94.6188 110.328C97.5953 110.32 99.3844 111.195 99.4 112.781C99.3844 114.367 97.5953 115.234 94.6188 115.234C91.6031 115.234 89.8141 114.367 89.8219 112.781ZM90.9625 104.219C90.9547 105.234 92.3453 105.82 94.6188 105.828C96.8688 105.82 98.2672 105.234 98.275 104.219C98.2672 103.219 96.8688 102.609 94.6188 102.609C92.3453 102.609 90.9547 103.219 90.9625 104.219ZM91.0719 112.781C91.0563 113.727 92.3922 114.289 94.6188 114.281C96.8219 114.289 98.1578 113.727 98.1656 112.781C98.1578 111.836 96.8219 111.281 94.6188 111.266C92.3922 111.281 91.0563 111.836 91.0719 112.781ZM92.65 108.25H96.5875V106.617C96.0016 106.727 95.3453 106.781 94.6188 106.781C93.8922 106.781 93.2359 106.727 92.65 106.625V108.25ZM106.346 102.391C108.525 102.398 110.072 103.727 110.08 105.656C110.072 107.594 108.525 108.914 106.346 108.922C104.15 108.914 102.588 107.594 102.596 105.656C102.588 103.727 104.15 102.398 106.346 102.391ZM101.877 111.188C104.439 111.195 107.978 111.172 111.049 110.719L111.143 111.625C107.963 112.219 104.549 112.234 102.049 112.234L101.877 111.188ZM103.799 105.656C103.791 106.953 104.861 107.844 106.346 107.844C107.814 107.844 108.885 106.953 108.877 105.656C108.885 104.367 107.814 103.469 106.346 103.469C104.861 103.469 103.791 104.367 103.799 105.656ZM111.971 115.297V101.375H113.189V115.297H111.971ZM124.003 104.359C124.01 106.234 125.487 107.922 127.565 108.578L126.94 109.562C125.323 109.008 124.042 107.867 123.409 106.406C122.807 107.984 121.503 109.234 119.846 109.844L119.206 108.859C121.292 108.133 122.76 106.328 122.768 104.359V103.547H119.518V102.547H127.206V103.547H124.003V104.359ZM121.503 114.969V110.609H122.721V113.938H130.909V114.969H121.503ZM129.253 111.578V101.391H130.471V111.578H129.253ZM137.089 102.062C139.167 102.047 140.659 103.195 140.651 104.891C140.659 106.586 139.167 107.742 137.089 107.734C135.011 107.742 133.526 106.586 133.526 104.891C133.526 103.195 135.011 102.047 137.089 102.062ZM132.479 108.922C135.089 108.93 138.659 108.875 141.745 108.422L141.823 109.344C140.495 109.586 139.12 109.734 137.776 109.82V114.844H136.558V109.891C135.143 109.953 133.808 109.961 132.651 109.969L132.479 108.922ZM134.729 104.891C134.714 105.977 135.706 106.727 137.089 106.719C138.487 106.727 139.487 105.977 139.479 104.891C139.487 103.812 138.487 103.047 137.089 103.062C135.706 103.047 134.714 103.812 134.729 104.891ZM142.761 115.281V101.391H143.964V115.281H142.761ZM158.722 107.828V108.797H146.003V107.828H158.722ZM147.534 110.828V109.906H157.128V112.859H148.784V114.188H157.581V115.078H147.55V112.016H155.909V110.828H147.534ZM147.613 102.688V101.797H157.081V104.672H148.878V105.891H157.331V106.781H147.659V103.828H155.847V102.688H147.613ZM171.207 102.891V103.906H169.66V110.594C170.41 110.547 171.152 110.477 171.863 110.391L171.926 111.297C168.988 111.766 165.668 111.812 163.207 111.828L163.051 110.781C163.637 110.781 164.262 110.773 164.926 110.766V103.906H163.394V102.891H171.207ZM166.113 110.75C166.887 110.734 167.691 110.703 168.488 110.664V103.906H166.113V110.75ZM172.754 115.266V101.375H173.973V106.953H176.301V107.984H173.973V115.266H172.754ZM180.637 102.219C182.754 102.211 184.277 103.555 184.293 105.484C184.277 107.438 182.754 108.773 180.637 108.781C178.535 108.773 176.988 107.438 176.996 105.484C176.988 103.555 178.535 102.211 180.637 102.219ZM178.199 105.484C178.192 106.82 179.231 107.734 180.637 107.719C182.059 107.734 183.082 106.82 183.09 105.484C183.082 104.18 182.059 103.273 180.637 103.266C179.231 103.273 178.192 104.18 178.199 105.484ZM178.496 111.281V110.281H187.59V115.297H186.371V111.281H178.496ZM186.371 109.562V101.375H187.59V104.969H189.684V106H187.59V109.562H186.371ZM200.989 101.375V107.109H203.317V108.125H200.989V115.266H199.77V101.375H200.989ZM190.161 104.625V103.609H193.739V101.547H194.958V103.609H198.426V104.625H190.161ZM190.958 108.969C190.95 107.094 192.387 105.781 194.364 105.781C196.325 105.781 197.754 107.094 197.77 108.969C197.754 110.852 196.325 112.156 194.364 112.156C192.387 112.156 190.95 110.852 190.958 108.969ZM192.129 108.969C192.122 110.234 193.067 111.125 194.364 111.109C195.645 111.125 196.583 110.234 196.598 108.969C196.583 107.711 195.645 106.805 194.364 106.812C193.067 106.805 192.122 107.711 192.129 108.969ZM215.231 101.375V115.266H213.997V101.375H215.231ZM203.919 111.656C207.677 109.875 209.598 107.211 209.872 103.891H204.559V102.891H211.122C211.106 106.883 209.247 110.422 204.591 112.656L203.919 111.656ZM225.529 102.062C227.607 102.047 229.099 103.195 229.091 104.891C229.099 106.586 227.607 107.742 225.529 107.734C223.451 107.742 221.966 106.586 221.966 104.891C221.966 103.195 223.451 102.047 225.529 102.062ZM220.919 108.922C223.529 108.93 227.099 108.875 230.185 108.422L230.263 109.344C228.935 109.586 227.56 109.734 226.216 109.82V114.844H224.997V109.891C223.583 109.953 222.247 109.961 221.091 109.969L220.919 108.922ZM223.169 104.891C223.154 105.977 224.146 106.727 225.529 106.719C226.927 106.727 227.927 105.977 227.919 104.891C227.927 103.812 226.927 103.047 225.529 103.062C224.146 103.047 223.154 103.812 223.169 104.891ZM231.201 115.281V101.391H232.404V115.281H231.201ZM241.396 103.781V104.781H234.428V103.781H237.318V101.797H238.537V103.781H241.396ZM234.928 108.875C234.928 107.031 236.185 105.727 237.912 105.719C239.662 105.727 240.912 107.031 240.928 108.875C240.912 110.742 239.662 112.055 237.912 112.062C236.185 112.055 234.928 110.742 234.928 108.875ZM236.021 108.875C236.021 110.109 236.81 110.992 237.912 110.984C239.021 110.992 239.834 110.109 239.834 108.875C239.834 107.656 239.021 106.766 237.912 106.75C236.81 106.766 236.021 107.656 236.021 108.875ZM242.115 114.578V101.719H243.271V107.234H245.115V101.375H246.287V115.266H245.115V108.25H243.271V114.578H242.115ZM252.857 105.109C252.85 107.625 254.467 110.156 256.482 111.078L255.748 112.078C254.17 111.266 252.865 109.609 252.248 107.633C251.631 109.711 250.326 111.492 248.748 112.328L247.951 111.344C249.99 110.344 251.6 107.672 251.607 105.109V102.578H252.857V105.109ZM254.967 107.125V106.125H258.264V101.375H259.482V115.297H258.264V107.125H254.967Z" fill="#636365"/>
<path d="M543.969 114.156C541.719 114.156 540.109 112.953 540.031 111.156H541.453C541.531 112.234 542.609 112.906 543.953 112.906C545.438 112.906 546.531 112.094 546.531 110.922C546.531 109.688 545.547 108.812 543.781 108.812H542.859V107.578H543.781C545.156 107.578 546.109 106.812 546.109 105.641C546.109 104.516 545.281 103.75 544 103.75C542.797 103.75 541.688 104.422 541.625 105.531H540.266C540.344 103.734 542 102.531 544.016 102.531C546.172 102.531 547.484 103.938 547.469 105.562C547.484 106.844 546.734 107.797 545.547 108.125V108.203C547.016 108.438 547.922 109.484 547.906 110.922C547.922 112.781 546.219 114.156 543.969 114.156ZM549.977 114L555.164 104.016V103.938H549.18V102.688H556.618V104L551.446 114H549.977ZM557.141 114.094C556.594 114.094 556.126 113.641 556.141 113.078C556.126 112.531 556.594 112.078 557.141 112.078C557.688 112.078 558.141 112.531 558.141 113.078C558.141 113.641 557.688 114.094 557.141 114.094ZM563.337 114.156C560.962 114.156 559.306 112.844 559.321 111C559.306 109.531 560.321 108.328 561.618 108.125V108.062C560.493 107.797 559.759 106.766 559.759 105.531C559.759 103.797 561.274 102.531 563.337 102.531C565.399 102.531 566.915 103.797 566.931 105.531C566.915 106.766 566.165 107.797 565.056 108.062V108.125C566.337 108.328 567.353 109.531 567.368 111C567.353 112.844 565.696 114.156 563.337 114.156ZM563.337 112.922C564.962 112.922 565.962 112.109 565.962 110.922C565.962 109.672 564.853 108.75 563.337 108.75C561.821 108.75 560.696 109.672 560.728 110.922C560.696 112.109 561.712 112.922 563.337 112.922ZM563.337 107.562C564.618 107.562 565.556 106.781 565.556 105.641C565.556 104.516 564.665 103.75 563.337 103.75C561.993 103.75 561.118 104.516 561.118 105.641C561.118 106.781 562.04 107.562 563.337 107.562ZM575.025 107.938C573.556 107.938 572.759 106.844 572.759 105.219C572.759 103.625 573.588 102.516 575.025 102.516C576.509 102.516 577.291 103.625 577.291 105.219C577.291 106.844 576.478 107.938 575.025 107.938ZM575.025 106.969C575.791 106.969 576.15 106.281 576.15 105.219C576.15 104.172 575.822 103.469 575.025 103.484C574.275 103.484 573.9 104.172 573.9 105.219C573.9 106.281 574.275 106.969 575.025 106.969ZM581.931 114.156C580.463 114.172 579.65 113.062 579.666 111.453C579.65 109.844 580.494 108.734 581.931 108.734C583.4 108.734 584.181 109.844 584.181 111.453C584.181 113.062 583.369 114.172 581.931 114.156ZM581.931 113.188C582.681 113.188 583.041 112.5 583.041 111.453C583.041 110.391 582.713 109.688 581.931 109.703C581.181 109.719 580.791 110.391 580.791 111.453C580.791 112.5 581.166 113.188 581.931 113.188ZM573.869 114L581.65 102.688H582.916L575.134 114H573.869Z" fill="#636365"/>
<rect x="26" y="132" width="560" height="16" rx="8" fill="#F4F5F7"/>
<rect x="26" y="132" width="234" height="16" rx="8" fill="url(#paint1_linear_24_650)"/>
<path d="M41.9531 189.375V203.266H40.7344V189.375H41.9531ZM30.6406 199.562C31.8281 199.555 33.1875 199.547 34.5938 199.5V197.984C32.9219 197.812 31.8438 196.859 31.8594 195.469C31.8438 193.898 33.1797 192.883 35.1875 192.891C37.1953 192.883 38.5547 193.898 38.5469 195.469C38.5547 196.844 37.4766 197.797 35.8281 197.984V199.453C37.1719 199.391 38.5312 199.297 39.8125 199.125L39.9062 200.062C36.8047 200.562 33.4062 200.609 30.8281 200.609L30.6406 199.562ZM30.9375 192.094V191.094H34.5938V189.391H35.8281V191.094H39.4531V192.094H30.9375ZM33 195.469C32.9922 196.43 33.8984 197.062 35.1875 197.047C36.4844 197.062 37.3828 196.43 37.375 195.469C37.3828 194.5 36.4844 193.844 35.1875 193.844C33.8984 193.844 32.9922 194.5 33 195.469ZM48.7269 193.109C48.7269 195.555 50.3441 198.078 52.3206 199.047L51.5706 200.031C50.0394 199.234 48.7581 197.586 48.1409 195.656C47.5238 197.703 46.2113 199.461 44.6488 200.297L43.8675 199.312C45.8988 198.312 47.5081 195.648 47.5238 193.109V190.578H48.7269V193.109ZM53.6019 203.266V189.375H54.8206V195.016H57.1488V196.078H54.8206V203.266H53.6019ZM62.1256 190.391C64.3053 190.398 65.8522 191.727 65.86 193.656C65.8522 195.594 64.3053 196.914 62.1256 196.922C59.9303 196.914 58.3678 195.594 58.3756 193.656C58.3678 191.727 59.9303 190.398 62.1256 190.391ZM57.6569 199.188C60.2194 199.195 63.7584 199.172 66.8288 198.719L66.9225 199.625C63.7428 200.219 60.3288 200.234 57.8288 200.234L57.6569 199.188ZM59.5788 193.656C59.5709 194.953 60.6413 195.844 62.1256 195.844C63.5944 195.844 64.6647 194.953 64.6569 193.656C64.6647 192.367 63.5944 191.469 62.1256 191.469C60.6413 191.469 59.5709 192.367 59.5788 193.656ZM67.7506 203.297V189.375H68.9694V203.297H67.7506ZM86.2513 189.391V199.547H85.0325V189.391H86.2513ZM75.1106 193.766C75.1028 191.766 76.6731 190.367 78.7513 190.359C80.8294 190.367 82.3841 191.766 82.3919 193.766C82.3841 195.789 80.8294 197.195 78.7513 197.188C76.6731 197.195 75.1028 195.789 75.1106 193.766ZM76.3138 193.766C76.2981 195.148 77.345 196.109 78.7513 196.109C80.1341 196.109 81.1888 195.148 81.1888 193.766C81.1888 192.406 80.1341 191.438 78.7513 191.438C77.345 191.438 76.2981 192.406 76.3138 193.766ZM77.2825 202.969V198.516H78.5013V201.938H86.6888V202.969H77.2825ZM100.228 189.375V203.266H99.0406V196.047H97.15V202.562H95.9781V189.672H97.15V195H99.0406V189.375H100.228ZM88.15 199.453C90.15 198.352 91.2203 195.992 91.2125 193.172V192.062H88.4781V191.031H94.9781V192.062H92.4V193.172C92.4 195.711 93.4547 197.953 95.4313 198.969L94.6969 199.922C93.2984 199.156 92.3297 197.789 91.8375 196.094C91.3609 198.023 90.3766 199.539 88.9156 200.391L88.15 199.453ZM106.439 191.625C106.439 193.516 107.877 195.25 109.893 195.938L109.221 196.906C107.689 196.344 106.478 195.195 105.869 193.742C105.275 195.391 104.033 196.664 102.408 197.297L101.752 196.312C103.83 195.539 105.228 193.68 105.236 191.531V190.094H106.439V191.625ZM103.596 200.703C103.603 199.117 105.346 198.188 108.205 198.188C111.057 198.188 112.783 199.117 112.783 200.703C112.783 202.32 111.057 203.234 108.205 203.234C105.346 203.234 103.603 202.32 103.596 200.703ZM104.83 200.703C104.814 201.688 106.111 202.258 108.205 202.266C110.307 202.258 111.588 201.688 111.596 200.703C111.588 199.758 110.307 199.172 108.205 199.172C106.111 199.172 104.814 199.758 104.83 200.703ZM111.439 197.828V189.375H112.658V193H114.752V194.031H112.658V197.828H111.439ZM123.01 190.922V191.641C123.002 192.742 123.002 194.578 122.604 197.156L121.369 197.047C121.752 194.719 121.783 193.031 121.776 191.922H115.948V190.922H123.01ZM115.166 199.188C116.08 199.18 117.096 199.172 118.166 199.148V194.891H119.369V199.109C120.908 199.055 122.487 198.953 123.932 198.781L123.994 199.703C121.073 200.156 117.807 200.219 115.323 200.203L115.166 199.188ZM124.807 203.266V189.375H126.026V195.188H128.276V196.25H126.026V203.266H124.807ZM145.214 197.625V198.625H139.417V203.266H138.214V198.625H132.495V197.625H145.214ZM134.12 195.938V189.953H135.339V191.875H142.339V189.953H143.573V195.938H134.12ZM135.339 194.938H142.339V192.875H135.339V194.938ZM156.878 189.375V192.938H158.972V193.984H156.878V197.453H155.659V189.375H156.878ZM146.05 191.828V190.812H149.581V189.25H150.8V190.812H154.331V191.828H146.05ZM146.847 194.906C146.839 193.422 148.175 192.477 150.191 192.469C152.183 192.477 153.519 193.422 153.534 194.906C153.519 196.391 152.183 197.352 150.191 197.344C148.175 197.352 146.839 196.391 146.847 194.906ZM148.019 194.906C148.011 195.812 148.878 196.406 150.191 196.406C151.488 196.406 152.363 195.812 152.378 194.906C152.363 194.008 151.488 193.406 150.191 193.422C148.878 193.406 148.011 194.008 148.019 194.906ZM148.097 203.078V198.062H149.316V199.547H155.659V198.062H156.878V203.078H148.097ZM149.316 202.094H155.659V200.516H149.316V202.094ZM170.277 189.375V195.109H172.605V196.125H170.277V203.266H169.058V189.375H170.277ZM159.449 192.625V191.609H163.027V189.547H164.246V191.609H167.714V192.625H159.449ZM160.246 196.969C160.238 195.094 161.675 193.781 163.652 193.781C165.613 193.781 167.042 195.094 167.058 196.969C167.042 198.852 165.613 200.156 163.652 200.156C161.675 200.156 160.238 198.852 160.246 196.969ZM161.417 196.969C161.41 198.234 162.355 199.125 163.652 199.109C164.933 199.125 165.871 198.234 165.886 196.969C165.871 195.711 164.933 194.805 163.652 194.812C162.355 194.805 161.41 195.711 161.417 196.969ZM184.269 193.594V194.578H174.754V189.891H175.973V193.594H184.269ZM173.019 197.469V196.469H185.738V197.469H173.019ZM174.676 202.922V198.891H175.894V201.906H184.348V202.922H174.676ZM191.512 193.641C191.52 196 193.231 198.398 195.277 199.281L194.59 200.25C192.965 199.516 191.567 197.914 190.918 195.992C190.27 198.031 188.863 199.797 187.277 200.594L186.543 199.625C188.535 198.672 190.27 196.047 190.277 193.641V191.828H186.996V190.812H194.824V191.828H191.512V193.641ZM196.762 203.266V189.375H197.996V203.266H196.762ZM214.591 189.391V193.594H216.669V194.625H214.591V198.703H213.356V189.391H214.591ZM203.684 197.281C204.794 197.281 206.091 197.281 207.45 197.242V196.219C205.833 196.07 204.786 195.328 204.794 194.172C204.786 192.906 206.091 192.125 208.044 192.125C210.012 192.125 211.294 192.906 211.309 194.172C211.294 195.32 210.278 196.062 208.669 196.219V197.195C209.966 197.133 211.278 197.023 212.497 196.844L212.606 197.734C209.591 198.266 206.27 198.289 203.825 198.281L203.684 197.281ZM204.028 191.594V190.656H207.45V189.266H208.669V190.656H212.075V191.594H204.028ZM205.387 200.375V199.391H214.591V203.266H213.356V200.375H205.387ZM205.966 194.172C205.958 194.898 206.762 195.391 208.044 195.375C209.325 195.391 210.137 194.898 210.137 194.172C210.137 193.438 209.325 192.984 208.044 193C206.762 192.984 205.958 193.438 205.966 194.172ZM228.724 189.391V199.547H227.505V189.391H228.724ZM217.583 193.766C217.575 191.766 219.146 190.367 221.224 190.359C223.302 190.367 224.857 191.766 224.864 193.766C224.857 195.789 223.302 197.195 221.224 197.188C219.146 197.195 217.575 195.789 217.583 193.766ZM218.786 193.766C218.771 195.148 219.818 196.109 221.224 196.109C222.607 196.109 223.661 195.148 223.661 193.766C223.661 192.406 222.607 191.438 221.224 191.438C219.818 191.438 218.771 192.406 218.786 193.766ZM219.755 202.969V198.516H220.974V201.938H229.161V202.969H219.755ZM241.513 189.375V195.109H243.841V196.125H241.513V203.266H240.294V189.375H241.513ZM230.685 192.625V191.609H234.263V189.547H235.482V191.609H238.951V192.625H230.685ZM231.482 196.969C231.474 195.094 232.912 193.781 234.888 193.781C236.849 193.781 238.279 195.094 238.294 196.969C238.279 198.852 236.849 200.156 234.888 200.156C232.912 200.156 231.474 198.852 231.482 196.969ZM232.654 196.969C232.646 198.234 233.591 199.125 234.888 199.109C236.169 199.125 237.107 198.234 237.122 196.969C237.107 195.711 236.169 194.805 234.888 194.812C233.591 194.805 232.646 195.711 232.654 196.969ZM255.756 189.375V203.266H254.521V189.375H255.756ZM244.443 199.656C248.201 197.875 250.123 195.211 250.396 191.891H245.084V190.891H251.646C251.631 194.883 249.771 198.422 245.115 200.656L244.443 199.656ZM266.053 190.062C268.131 190.047 269.623 191.195 269.616 192.891C269.623 194.586 268.131 195.742 266.053 195.734C263.975 195.742 262.491 194.586 262.491 192.891C262.491 191.195 263.975 190.047 266.053 190.062ZM261.444 196.922C264.053 196.93 267.623 196.875 270.709 196.422L270.788 197.344C269.459 197.586 268.084 197.734 266.741 197.82V202.844H265.522V197.891C264.108 197.953 262.772 197.961 261.616 197.969L261.444 196.922ZM263.694 192.891C263.678 193.977 264.67 194.727 266.053 194.719C267.452 194.727 268.452 193.977 268.444 192.891C268.452 191.812 267.452 191.047 266.053 191.062C264.67 191.047 263.678 191.812 263.694 192.891ZM271.725 203.281V189.391H272.928V203.281H271.725ZM281.921 191.781V192.781H274.952V191.781H277.842V189.797H279.061V191.781H281.921ZM275.452 196.875C275.452 195.031 276.71 193.727 278.436 193.719C280.186 193.727 281.436 195.031 281.452 196.875C281.436 198.742 280.186 200.055 278.436 200.062C276.71 200.055 275.452 198.742 275.452 196.875ZM276.546 196.875C276.546 198.109 277.335 198.992 278.436 198.984C279.546 198.992 280.358 198.109 280.358 196.875C280.358 195.656 279.546 194.766 278.436 194.75C277.335 194.766 276.546 195.656 276.546 196.875ZM282.639 202.578V189.719H283.796V195.234H285.639V189.375H286.811V203.266H285.639V196.25H283.796V202.578H282.639ZM293.382 193.109C293.374 195.625 294.991 198.156 297.007 199.078L296.272 200.078C294.694 199.266 293.39 197.609 292.772 195.633C292.155 197.711 290.851 199.492 289.272 200.328L288.476 199.344C290.515 198.344 292.124 195.672 292.132 193.109V190.578H293.382V193.109ZM295.491 195.125V194.125H298.788V189.375H300.007V203.297H298.788V195.125H295.491Z" fill="#636365"/>
<path d="M541.969 202.156C539.719 202.156 538.109 200.953 538.031 199.156H539.453C539.531 200.234 540.609 200.906 541.953 200.906C543.438 200.906 544.531 200.094 544.531 198.922C544.531 197.688 543.547 196.812 541.781 196.812H540.859V195.578H541.781C543.156 195.578 544.109 194.812 544.109 193.641C544.109 192.516 543.281 191.75 542 191.75C540.797 191.75 539.688 192.422 539.625 193.531H538.266C538.344 191.734 540 190.531 542.016 190.531C544.172 190.531 545.484 191.938 545.469 193.562C545.484 194.844 544.734 195.797 543.547 196.125V196.203C545.016 196.438 545.922 197.484 545.906 198.922C545.922 200.781 544.219 202.156 541.969 202.156ZM551.555 202.156C549.586 202.125 547.43 200.969 547.43 196.781C547.43 192.781 549.071 190.531 551.727 190.531C553.711 190.531 555.102 191.75 555.399 193.531H554.008C553.743 192.531 552.993 191.781 551.727 191.781C549.868 191.781 548.758 193.375 548.758 196.094H548.899C549.555 195.156 550.586 194.594 551.805 194.594C553.821 194.594 555.493 196.156 555.493 198.344C555.493 200.469 553.93 202.172 551.555 202.156ZM551.555 200.922C553.024 200.922 554.118 199.766 554.133 198.359C554.118 196.969 553.071 195.828 551.586 195.828C550.102 195.828 548.961 197.031 548.946 198.375C548.946 199.703 550.039 200.922 551.555 200.922ZM557.548 202.094C557.001 202.094 556.532 201.641 556.548 201.078C556.532 200.531 557.001 200.078 557.548 200.078C558.094 200.078 558.548 200.531 558.548 201.078C558.548 201.641 558.094 202.094 557.548 202.094ZM560.321 202L560.306 200.969L564.165 196.906C565.509 195.484 566.149 194.719 566.149 193.672C566.149 192.516 565.165 191.75 563.899 191.75C562.556 191.75 561.696 192.609 561.696 193.875H560.368C560.353 191.875 561.899 190.531 563.946 190.531C565.993 190.531 567.462 191.906 567.462 193.672C567.462 194.938 566.868 195.922 564.868 197.984L562.274 200.656V200.75H567.665V202H560.321ZM575.478 195.938C574.009 195.938 573.213 194.844 573.213 193.219C573.213 191.625 574.041 190.516 575.478 190.516C576.963 190.516 577.744 191.625 577.744 193.219C577.744 194.844 576.931 195.938 575.478 195.938ZM575.478 194.969C576.244 194.969 576.603 194.281 576.603 193.219C576.603 192.172 576.275 191.469 575.478 191.484C574.728 191.484 574.353 192.172 574.353 193.219C574.353 194.281 574.728 194.969 575.478 194.969ZM582.384 202.156C580.916 202.172 580.103 201.062 580.119 199.453C580.103 197.844 580.947 196.734 582.384 196.734C583.853 196.734 584.634 197.844 584.634 199.453C584.634 201.062 583.822 202.172 582.384 202.156ZM582.384 201.188C583.134 201.188 583.494 200.5 583.494 199.453C583.494 198.391 583.166 197.688 582.384 197.703C581.634 197.719 581.244 198.391 581.244 199.453C581.244 200.5 581.619 201.188 582.384 201.188ZM574.322 202L582.103 190.688H583.369L575.588 202H574.322Z" fill="#636365"/>
<rect x="26" y="218" width="560" height="16" rx="8" fill="#F4F5F7"/>
<path d="M26 226C26 221.582 29.5817 218 34 218H243C247.418 218 251 221.582 251 226C251 230.418 247.418 234 243 234H34C29.5817 234 26 230.418 26 226Z" fill="url(#paint2_linear_24_650)"/>
<defs>
<filter id="filter0_d_24_650" x="0" y="28" width="393" height="64" filterUnits="userSpaceOnUse" color-interpolation-filters="sRGB">
<feFlood flood-opacity="0" result="BackgroundImageFix"/>
<feColorMatrix in="SourceAlpha" type="matrix" values="0 0 0 0 0 0 0 0 0 0 0 0 0 0 0 0 0 0 127 0" result="hardAlpha"/>
<feOffset dx="-6" dy="10"/>
<feGaussianBlur stdDeviation="10"/>
<feComposite in2="hardAlpha" operator="out"/>
<feColorMatrix type="matrix" values="0 0 0 0 0.666667 0 0 0 0 0.690196 0 0 0 0 0.737255 0 0 0 0.6 0"/>
<feBlend mode="normal" in2="BackgroundImageFix" result="effect1_dropShadow_24_650"/>
<feBlend mode="normal" in="SourceGraphic" in2="effect1_dropShadow_24_650" result="shape"/>
</filter>
<linearGradient id="paint0_linear_24_650" x1="26" y1="50" x2="379" y2="50" gradientUnits="userSpaceOnUse">
<stop stop-color="#1C4A90"/>
<stop offset="1" stop-color="#133761"/>
</linearGradient>
<linearGradient id="paint1_linear_24_650" x1="26" y1="140" x2="260" y2="140" gradientUnits="userSpaceOnUse">
<stop stop-color="#7688A3"/>
<stop offset="1" stop-color="#667586"/>
</linearGradient>
<linearGradient id="paint2_linear_24_650" x1="26" y1="226" x2="251" y2="226" gradientUnits="userSpaceOnUse">
<stop stop-color="#7688A3"/>
<stop offset="1" stop-color="#667586"/>
</linearGradient>
</defs>
</svg>
