<svg width="206" height="28" viewBox="0 0 206 28" fill="none" xmlns="http://www.w3.org/2000/svg">
<g id="_&#235;&#160;&#136;&#236;&#157;&#180;&#236;&#150;&#180;_1" clip-path="url(#clip0_24_22)">
<g id="Group">
<path id="Vector" d="M62.8662 24.4147H58.6543V4.93475C58.7739 4.92429 58.8722 4.90337 58.9732 4.90599C61.7448 4.91645 64.5191 4.89291 67.2908 4.95829C68.7417 4.99228 70.1342 5.37409 71.3911 6.12986C73.323 7.29097 74.2106 9.01956 74.1628 11.2215C74.1069 13.8052 72.7836 15.573 70.2883 16.4465C70.2431 16.4622 70.2006 16.4883 70.1103 16.5275C71.5107 17.4193 72.175 18.8131 72.8766 20.1704C73.5648 21.4989 74.2079 22.8483 74.8723 24.1898C74.9042 24.2552 74.9334 24.3258 74.9812 24.4383C74.107 24.4383 73.2725 24.4383 72.4408 24.4383C71.8482 24.4383 71.2529 24.4252 70.6603 24.4435C70.4159 24.4513 70.2989 24.3624 70.1926 24.1532C69.5044 22.7986 68.8241 21.4361 68.096 20.1024C67.3678 18.7713 66.18 18.1803 64.6626 18.1908C64.0966 18.1934 63.5306 18.1908 62.8662 18.1908V24.4147ZM62.9274 14.391C63.0071 14.4041 63.0709 14.4224 63.132 14.4224C64.2002 14.4224 65.2712 14.4328 66.3394 14.4224C67.0383 14.4145 67.7186 14.2916 68.3404 13.949C69.4379 13.3476 69.8419 12.3957 69.7302 11.211C69.6346 10.1937 69.0473 9.49812 68.0933 9.15293C67.5964 8.97248 67.0516 8.86265 66.5201 8.84173C65.428 8.79466 64.3305 8.82604 63.2356 8.82865C63.1373 8.82865 63.039 8.84434 62.9274 8.8548V14.391Z" fill="white"/>
<path id="Vector_2" d="M143.486 9.36474C142.319 10.0107 141.19 10.6383 140.085 11.2502C139.707 10.8057 139.386 10.3585 138.998 9.97668C137.812 8.81295 136.332 8.44684 134.711 8.55406C131.586 8.76065 129.678 11.2476 129.458 13.9883C129.322 15.6776 129.622 17.2545 130.654 18.6327C131.847 20.2305 133.497 20.9052 135.49 20.8163C137.47 20.73 138.984 19.8775 139.984 18.1777C139.994 18.1594 140.023 18.1489 140.077 18.1123C141.201 18.7347 142.338 19.3649 143.489 20.0056C142.567 21.8362 141.169 23.149 139.322 23.9545C133.276 26.5879 126.383 22.9502 125.224 16.5406C124.441 12.2048 126.38 8.01796 130.218 5.85788C133.853 3.81025 138.689 4.13975 141.772 7.04252C142.476 7.70676 143.045 8.46253 143.483 9.36474H143.486Z" fill="white"/>
<path id="Vector_3" d="M159.962 24.386C158.904 24.386 157.889 24.386 156.877 24.386C156.76 24.386 156.646 24.3755 156.529 24.3755C155.763 24.3624 155.846 24.4906 155.84 23.6747C155.827 21.3917 155.848 19.1061 155.798 16.8231C155.763 15.2409 154.684 13.9072 153.316 13.6117C151.389 13.1959 149.657 14.3021 149.215 16.2556C149.12 16.6845 149.072 17.1343 149.069 17.5736C149.053 19.6918 149.064 21.8127 149.064 23.9309C149.064 24.08 149.064 24.2291 149.064 24.4017H144.99V3.52783H149.067V10.9155C149.611 10.6514 150.082 10.3559 150.595 10.1807C153.109 9.33338 155.521 9.45629 157.687 11.109C158.963 12.0819 159.539 13.4862 159.797 15.0108C159.914 15.6933 159.951 16.3968 159.957 17.0898C159.975 19.3728 159.965 21.6584 159.965 23.9414V24.386H159.962Z" fill="white"/>
<path id="Vector_4" d="M205.973 10.1782C204.74 11.6296 203.526 13.0601 202.312 14.4879C201.634 15.2855 200.967 16.0936 200.271 16.8729C200.029 17.1423 200.063 17.3018 200.284 17.5633C202.112 19.7286 203.925 21.9096 205.74 24.0854C205.817 24.1795 205.886 24.2789 205.997 24.428H204.132C203.332 24.428 202.532 24.3966 201.735 24.4411C201.267 24.4672 200.988 24.2972 200.709 23.952C199.588 22.5608 198.432 21.1957 197.3 19.8149C197.066 19.5299 196.88 19.2108 196.667 18.9101C196.614 18.8343 196.548 18.7689 196.487 18.6983C196.452 18.7061 196.418 18.7166 196.38 18.7244V24.4071H192.277V3.52539H196.37V15.7406C196.524 15.6281 196.601 15.5915 196.649 15.534C198.094 13.7845 199.535 12.0323 200.983 10.2855C201.055 10.1992 201.19 10.1181 201.296 10.1181C202.819 10.1102 204.339 10.1155 205.862 10.1181C205.883 10.1181 205.904 10.1416 205.971 10.1809L205.973 10.1782Z" fill="white"/>
<path id="Vector_5" d="M78.3377 18.0258C78.553 19.6341 79.7036 20.8606 81.2502 21.1535C83.0466 21.4909 84.8244 20.9364 85.8156 19.1634C86.8706 19.689 87.9309 20.2147 89.0098 20.7534C88.1169 22.55 86.7722 23.834 84.8563 24.4093C82.0554 25.2488 79.4007 24.8983 77.0516 23.1018C75.4731 21.8962 74.6307 20.2487 74.3756 18.3056C74.1205 16.3705 74.4261 14.5399 75.5182 12.8897C77.0702 10.544 79.3289 9.5058 82.1325 9.56594C84.1388 9.60778 85.8661 10.3139 87.2426 11.7783C88.2896 12.8924 88.8875 14.2208 89.0735 15.7141C89.1665 16.4646 89.1559 17.2282 89.1958 18.0284H78.3404L78.3377 18.0258ZM84.9705 15.7428C84.9333 14.4301 83.602 13.2193 82.1697 13.1643C80.2643 13.0911 78.7124 14.1868 78.5344 15.7428H84.9679H84.9705Z" fill="white"/>
<path id="Vector_6" d="M114.265 18.0389H103.417C103.492 19.404 104.605 20.688 106.037 21.0803C107.616 21.5092 109.718 21.2006 110.882 19.1869C110.916 19.1948 110.956 19.1974 110.988 19.2131C112.006 19.7204 113.024 20.2304 114.071 20.7534C113.462 22.0008 112.599 23.0128 111.405 23.7346C108.23 25.6567 103.253 25.0369 100.866 21.836C99.9096 20.5546 99.4366 19.1111 99.3701 17.5263C99.2957 15.7638 99.689 14.1241 100.72 12.6753C102.293 10.4603 104.512 9.49011 107.223 9.56071C109.171 9.6104 110.863 10.2799 112.221 11.6816C113.351 12.8479 113.98 14.2522 114.153 15.8474C114.23 16.5614 114.23 17.2831 114.267 18.0389H114.265ZM110.039 15.7428C109.986 14.4457 108.716 13.2585 107.313 13.167C105.389 13.0388 103.858 14.0953 103.593 15.7428H110.039Z" fill="white"/>
<path id="Vector_7" d="M175.749 18.0312H164.979C165.027 19.3701 166.135 20.7012 167.541 21.0857C169.249 21.5512 171.304 21.219 172.481 19.2028C173.509 19.7153 174.54 20.2279 175.603 20.7562C175.314 21.4282 174.907 22.0036 174.418 22.5187C172.741 24.2892 170.629 24.9142 168.232 24.7573C166.43 24.6396 164.82 24.0512 163.451 22.8692C162.152 21.7447 161.376 20.3221 161.094 18.6615C160.725 16.4805 161.057 14.4119 162.393 12.5787C163.775 10.688 165.686 9.72039 168.035 9.59225C169.956 9.48764 171.718 9.93744 173.212 11.177C174.806 12.4976 175.595 14.2262 175.741 16.2503C175.781 16.8178 175.747 17.3905 175.747 18.026L175.749 18.0312ZM165.168 15.7456H171.646C171.54 14.2341 170.11 13.0808 168.428 13.1253C166.738 13.1671 165.207 14.3936 165.168 15.7456Z" fill="white"/>
<path id="Vector_8" d="M91.3951 24.4121V13.5646H89.418V10.0786H91.3924C91.3924 9.79097 91.3951 9.54253 91.3924 9.2941C91.3765 8.16175 91.597 7.0791 92.1418 6.07751C93.0373 4.43784 94.4909 3.56962 96.3139 3.27673C97.5708 3.07536 98.8251 3.12766 100.055 3.49901C100.358 3.59054 100.47 3.73437 100.462 4.06126C100.438 5.17268 100.451 6.28672 100.451 7.43998C99.6595 7.03987 98.8596 6.82282 98.0093 6.85158C97.717 6.86204 97.4193 6.9065 97.1377 6.98495C96.2155 7.24123 95.6734 7.87148 95.5858 8.80507C95.5485 9.20518 95.5804 9.61053 95.5804 10.0603H98.9633V13.5384H95.5858V24.4121H91.3897H91.3951Z" fill="white"/>
<path id="Vector_9" d="M187.859 18.9361C188.999 19.5507 190.11 20.1495 191.221 20.7484C189.916 23.7296 186.69 25.1889 183.379 24.7024C179.518 24.135 176.812 21.0544 176.77 17.3304C176.73 13.6771 179.38 10.4684 182.959 9.83291C186.655 9.17652 189.977 10.8502 191.221 13.7294C190.11 14.3283 188.997 14.9272 187.857 15.5417C187.19 14.3858 186.236 13.6536 184.88 13.5438C183.815 13.4548 182.866 13.7582 182.079 14.4852C180.469 15.981 180.472 18.5125 182.103 20.0109C182.988 20.8242 184.057 21.0962 185.25 20.8818C186.438 20.6699 187.253 19.9639 187.854 18.9387L187.859 18.9361Z" fill="white"/>
<path id="Vector_10" d="M124.544 10.1232C124.249 11.3575 123.968 12.5317 123.691 13.6928C123.192 13.6693 122.607 13.5934 122.028 13.6274C120.779 13.7033 119.849 14.6473 119.814 15.8895C119.769 17.4376 119.777 18.9858 119.772 20.5339C119.766 21.8153 119.772 23.0967 119.772 24.4069H115.613C115.607 24.2735 115.594 24.1506 115.594 24.0277C115.594 21.4126 115.589 18.7975 115.594 16.1824C115.594 15.084 115.772 14.0171 116.24 13.0103C116.907 11.5746 117.991 10.5834 119.511 10.0866C121.106 9.56615 122.716 9.54784 124.326 10.0395C124.422 10.0682 124.515 10.1101 124.544 10.1232Z" fill="white"/>
</g>
<g id="Group_2">
<path id="Vector_11" d="M42.3979 17.0922C44.1796 17.0922 45.624 15.6708 45.624 13.9174C45.624 12.1641 44.1796 10.7427 42.3979 10.7427C40.6162 10.7427 39.1719 12.1641 39.1719 13.9174C39.1719 15.6708 40.6162 17.0922 42.3979 17.0922Z" fill="white"/>
<path id="Vector_12" d="M23.8502 9.49547C25.4925 6.79145 28.567 4.96871 32.0801 4.96871C34.9926 4.96871 37.6021 6.22135 39.3454 8.19053L44.1154 6.14028C41.5005 2.43467 37.0839 0 32.0801 0C28.3093 0 24.8759 1.38078 22.293 3.64547C23.3028 5.11254 23.8529 6.98235 23.8529 9.28103C23.8529 9.35164 23.8529 9.42486 23.8529 9.49547H23.8502Z" fill="white"/>
<path id="Vector_13" d="M39.526 19.5977C37.7854 21.6845 35.0935 23.0261 32.08 23.0261C26.8423 23.0261 22.5826 18.9753 22.5826 13.9961C21.5595 15.6305 19.9704 16.8256 18.0039 17.5213C19.6276 23.5465 25.3144 27.9974 32.08 27.9974C37.2061 27.9974 41.713 25.4424 44.3013 21.5851L39.526 19.5977Z" fill="white"/>
<path id="Vector_14" d="M22.9624 27.1971L14.395 17.1891C19.1278 16.8805 22.5319 14.0326 22.5319 9.33589C22.5319 3.40743 18.3864 0.713867 12.0884 0.713867H0V27.1997H5.32007V5.63812H11.9316C15.062 5.63812 16.9381 6.794 16.9381 9.41173C16.9381 12.0295 15.0222 13.1853 11.9316 13.1853H5.32007L9.46027 18.5594L16.2711 27.1971H22.9598H22.9624Z" fill="white"/>
</g>
</g>
<defs>
<clipPath id="clip0_24_22">
<rect width="206" height="28" fill="white"/>
</clipPath>
</defs>
</svg>
