<svg width="206" height="28" viewBox="0 0 206 28" fill="none" xmlns="http://www.w3.org/2000/svg">
<g clip-path="url(#clip0_137_746)">
<path d="M62.8653 24.4152H58.6533V4.93524C58.7729 4.92478 58.8712 4.90386 58.9722 4.90647C61.7439 4.91693 64.5182 4.8934 67.2898 4.95878C68.7407 4.99277 70.1332 5.37458 71.3901 6.13035C73.322 7.29146 74.2096 9.02004 74.1618 11.222C74.106 13.8057 72.7826 15.5735 70.2873 16.447C70.2421 16.4627 70.1996 16.4888 70.1093 16.528C71.5097 17.4198 72.1741 18.8136 72.8756 20.1709C73.5639 21.4994 74.207 22.8488 74.8713 24.1903C74.9032 24.2557 74.9324 24.3263 74.9803 24.4387C74.106 24.4387 73.2716 24.4387 72.4398 24.4387C71.8472 24.4387 71.252 24.4257 70.6594 24.444C70.4149 24.4518 70.298 24.3629 70.1917 24.1537C69.5034 22.7991 68.8231 21.4366 68.095 20.1029C67.3669 18.7718 66.179 18.1808 64.6617 18.1912C64.0956 18.1939 63.5296 18.1912 62.8653 18.1912V24.4152ZM62.9264 14.3915C63.0061 14.4046 63.0699 14.4229 63.131 14.4229C64.1993 14.4229 65.2702 14.4333 66.3385 14.4229C67.0373 14.415 67.7176 14.2921 68.3395 13.9495C69.437 13.3481 69.8409 12.3962 69.7293 11.2115C69.6336 10.1942 69.0463 9.49861 68.0923 9.15341C67.5954 8.97297 67.0506 8.86314 66.5192 8.84222C65.427 8.79515 64.3295 8.82653 63.2346 8.82914C63.1363 8.82914 63.038 8.84483 62.9264 8.85529V14.3915Z" fill="#717272"/>
<path d="M143.485 9.36523C142.318 10.0112 141.189 10.6388 140.084 11.2507C139.706 10.8062 139.385 10.359 138.997 9.97717C137.812 8.81344 136.331 8.44733 134.71 8.55455C131.585 8.76114 129.677 11.2481 129.457 13.9887C129.321 15.6781 129.621 17.255 130.653 18.6332C131.846 20.231 133.496 20.9057 135.489 20.8168C137.469 20.7305 138.983 19.878 139.983 18.1782C139.993 18.1599 140.022 18.1494 140.076 18.1128C141.2 18.7352 142.337 19.3654 143.488 20.0061C142.566 21.8367 141.168 23.1495 139.321 23.9549C133.275 26.5884 126.382 22.9507 125.224 16.5411C124.44 12.2052 126.379 8.01845 130.217 5.85837C133.852 3.81073 138.688 4.14024 141.771 7.04301C142.475 7.70725 143.044 8.46302 143.482 9.36523H143.485Z" fill="#717272"/>
<path d="M159.961 24.3864C158.903 24.3864 157.888 24.3864 156.876 24.3864C156.759 24.3864 156.645 24.376 156.528 24.376C155.762 24.3629 155.845 24.4911 155.839 23.6751C155.826 21.3921 155.847 19.1065 155.797 16.8235C155.762 15.2414 154.683 13.9077 153.315 13.6122C151.388 13.1964 149.656 14.3026 149.214 16.2561C149.119 16.6849 149.071 17.1347 149.068 17.5741C149.052 19.6923 149.063 21.8132 149.063 23.9314C149.063 24.0805 149.063 24.2295 149.063 24.4021H144.989V3.52832H149.066V10.916C149.61 10.6519 150.081 10.3564 150.594 10.1812C153.108 9.33387 155.52 9.45678 157.686 11.1095C158.962 12.0823 159.538 13.4867 159.796 15.0113C159.913 15.6938 159.95 16.3973 159.956 17.0903C159.974 19.3733 159.964 21.6589 159.964 23.9419V24.3864H159.961Z" fill="#717272"/>
<path d="M205.973 10.1782C204.74 11.6296 203.526 13.0601 202.312 14.4879C201.634 15.2855 200.967 16.0936 200.271 16.8729C200.029 17.1423 200.063 17.3018 200.284 17.5633C202.112 19.7286 203.925 21.9096 205.74 24.0854C205.817 24.1795 205.886 24.2789 205.997 24.428H204.132C203.332 24.428 202.532 24.3966 201.735 24.4411C201.267 24.4672 200.988 24.2972 200.709 23.952C199.588 22.5608 198.432 21.1957 197.3 19.8149C197.066 19.5299 196.88 19.2108 196.667 18.9101C196.614 18.8343 196.548 18.7689 196.487 18.6983C196.452 18.7061 196.418 18.7166 196.38 18.7244V24.4071H192.277V3.52539H196.37V15.7406C196.524 15.6281 196.601 15.5915 196.649 15.534C198.094 13.7845 199.535 12.0323 200.983 10.2855C201.055 10.1992 201.19 10.1181 201.296 10.1181C202.819 10.1102 204.339 10.1155 205.862 10.1181C205.883 10.1181 205.904 10.1416 205.971 10.1809L205.973 10.1782Z" fill="#717272"/>
<path d="M78.3368 18.0268C78.552 19.6351 79.7026 20.8616 81.2492 21.1545C83.0456 21.4918 84.8234 20.9374 85.8146 19.1644C86.8696 19.69 87.9299 20.2157 89.0088 20.7544C88.1159 22.5509 86.7713 23.835 84.8553 24.4103C82.0544 25.2497 79.3997 24.8993 77.0506 23.1027C75.4721 21.8972 74.6297 20.2497 74.3746 18.3066C74.1195 16.3714 74.4251 14.5409 75.5173 12.8907C77.0692 10.545 79.328 9.50677 82.1315 9.56692C84.1378 9.60876 85.8651 10.3148 87.2416 11.7793C88.2886 12.8933 88.8865 14.2218 89.0726 15.715C89.1656 16.4656 89.1549 17.2292 89.1948 18.0294H78.3394L78.3368 18.0268ZM84.9696 15.7438C84.9324 14.431 83.601 13.2202 82.1687 13.1653C80.2633 13.0921 78.7114 14.1878 78.5334 15.7438H84.9669H84.9696Z" fill="#717272"/>
<path d="M114.265 18.0394H103.417C103.492 19.4045 104.605 20.6885 106.037 21.0808C107.616 21.5096 109.718 21.2011 110.882 19.1874C110.916 19.1953 110.956 19.1979 110.988 19.2136C112.006 19.7209 113.024 20.2309 114.071 20.7539C113.462 22.0013 112.599 23.0133 111.405 23.7351C108.23 25.6572 103.253 25.0374 100.866 21.8365C99.9096 20.5551 99.4366 19.1116 99.3701 17.5268C99.2957 15.7642 99.689 14.1246 100.72 12.6758C102.293 10.4608 104.512 9.49059 107.223 9.5612C109.171 9.61089 110.863 10.2804 112.221 11.6821C113.351 12.8484 113.98 14.2527 114.153 15.8479C114.23 16.5619 114.23 17.2836 114.267 18.0394H114.265ZM110.039 15.7433C109.986 14.4462 108.716 13.259 107.313 13.1674C105.389 13.0393 103.858 14.0958 103.593 15.7433H110.039Z" fill="#717272"/>
<path d="M175.748 18.0317H164.978C165.026 19.3706 166.134 20.7017 167.54 21.0862C169.248 21.5516 171.303 21.2195 172.48 19.2033C173.508 19.7158 174.539 20.2284 175.602 20.7566C175.313 21.4287 174.906 22.0041 174.417 22.5192C172.74 24.2897 170.628 24.9147 168.231 24.7578C166.429 24.6401 164.819 24.0517 163.45 22.8697C162.151 21.7452 161.375 20.3225 161.093 18.6619C160.724 16.4809 161.056 14.4124 162.392 12.5792C163.774 10.6885 165.685 9.72088 168.034 9.59274C169.955 9.48813 171.717 9.93793 173.211 11.1775C174.805 12.4981 175.594 14.2267 175.74 16.2508C175.78 16.8183 175.746 17.391 175.746 18.0265L175.748 18.0317ZM165.167 15.7461H171.645C171.539 14.2346 170.109 13.0813 168.427 13.1258C166.737 13.1676 165.207 14.3941 165.167 15.7461Z" fill="#717272"/>
<path d="M91.3951 24.4125V13.5651H89.418V10.0791H91.3924C91.3924 9.79146 91.3951 9.54302 91.3924 9.29459C91.3765 8.16224 91.597 7.07959 92.1418 6.078C93.0373 4.43832 94.4909 3.57011 96.3139 3.27721C97.5708 3.07585 98.8251 3.12815 100.055 3.4995C100.358 3.59103 100.47 3.73486 100.462 4.06175C100.438 5.17317 100.451 6.28721 100.451 7.44047C99.6595 7.04036 98.8596 6.82331 98.0093 6.85207C97.717 6.86253 97.4193 6.90699 97.1377 6.98544C96.2155 7.24172 95.6734 7.87196 95.5858 8.80556C95.5485 9.20567 95.5804 9.61101 95.5804 10.0608H98.9633V13.5389H95.5858V24.4125H91.3897H91.3951Z" fill="#717272"/>
<path d="M187.857 18.9366C188.997 19.5512 190.108 20.15 191.219 20.7489C189.914 23.7301 186.688 25.1893 183.377 24.7029C179.516 24.1354 176.811 21.0548 176.768 17.3309C176.728 13.6776 179.378 10.4689 182.957 9.8334C186.653 9.17701 189.975 10.8507 191.219 13.7299C190.108 14.3288 188.995 14.9276 187.855 15.5422C187.188 14.3863 186.234 13.6541 184.878 13.5442C183.813 13.4553 182.864 13.7587 182.077 14.4857C180.467 15.9815 180.47 18.513 182.101 20.0114C182.986 20.8247 184.055 21.0967 185.248 20.8822C186.436 20.6704 187.251 19.9643 187.852 18.9392L187.857 18.9366Z" fill="#717272"/>
<path d="M124.543 10.1237C124.248 11.358 123.967 12.5322 123.69 13.6933C123.191 13.6697 122.606 13.5939 122.027 13.6279C120.778 13.7037 119.848 14.6478 119.813 15.89C119.768 17.4381 119.776 18.9863 119.771 20.5344C119.765 21.8158 119.771 23.0972 119.771 24.4074H115.612C115.606 24.274 115.593 24.1511 115.593 24.0282C115.593 21.4131 115.588 18.798 115.593 16.1829C115.593 15.0845 115.771 14.0176 116.239 13.0107C116.906 11.575 117.99 10.5839 119.51 10.087C121.105 9.56664 122.715 9.54833 124.325 10.04C124.421 10.0687 124.514 10.1106 124.543 10.1237Z" fill="#717272"/>
<path d="M42.3989 17.0927C44.1806 17.0927 45.625 15.6713 45.625 13.9179C45.625 12.1645 44.1806 10.7432 42.3989 10.7432C40.6172 10.7432 39.1729 12.1645 39.1729 13.9179C39.1729 15.6713 40.6172 17.0927 42.3989 17.0927Z" fill="#2756A0"/>
<path d="M23.8502 9.49547C25.4925 6.79145 28.567 4.96871 32.0801 4.96871C34.9926 4.96871 37.6021 6.22135 39.3454 8.19053L44.1154 6.14028C41.5005 2.43467 37.0839 0 32.0801 0C28.3093 0 24.8759 1.38078 22.293 3.64547C23.3028 5.11254 23.8529 6.98235 23.8529 9.28103C23.8529 9.35164 23.8529 9.42486 23.8529 9.49547H23.8502Z" fill="#2756A0"/>
<path d="M39.526 19.5977C37.7854 21.6845 35.0935 23.0261 32.08 23.0261C26.8423 23.0261 22.5826 18.9753 22.5826 13.9961C21.5595 15.6305 19.9704 16.8256 18.0039 17.5213C19.6276 23.5465 25.3144 27.9974 32.08 27.9974C37.2061 27.9974 41.713 25.4424 44.3013 21.5851L39.526 19.5977Z" fill="#2756A0"/>
<path d="M22.9624 27.1971L14.395 17.1891C19.1278 16.8805 22.5319 14.0326 22.5319 9.33589C22.5319 3.40743 18.3864 0.713867 12.0884 0.713867H0V27.1997H5.32007V5.63812H11.9316C15.062 5.63812 16.9381 6.794 16.9381 9.41173C16.9381 12.0295 15.0222 13.1853 11.9316 13.1853H5.32007L9.46027 18.5594L16.2711 27.1971H22.9598H22.9624Z" fill="#2756A0"/>
</g>
<defs>
<clipPath id="clip0_137_746">
<rect width="206" height="28" fill="white"/>
</clipPath>
</defs>
</svg>
