<svg width="623" height="444" viewBox="0 0 623 444" fill="none" xmlns="http://www.w3.org/2000/svg">
<g filter="url(#filter0_d_24_187)">
<g clip-path="url(#clip0_24_187)">
<rect x="63" y="21" width="360" height="360" rx="180" fill="#1C4A90"/>
<mask id="path-2-outside-1_24_187" maskUnits="userSpaceOnUse" x="101" y="198" width="269" height="185" fill="black">
<rect fill="white" x="101" y="198" width="269" height="185"/>
<path d="M366.218 332.214C348.293 349.047 327.109 362.029 303.973 370.359C280.837 378.688 256.239 382.189 231.698 380.645C207.156 379.101 183.191 372.545 161.282 361.381C139.372 350.218 119.982 334.683 104.308 315.736L243 201L366.218 332.214Z"/>
</mask>
<path d="M366.218 332.214C348.293 349.047 327.109 362.029 303.973 370.359C280.837 378.688 256.239 382.189 231.698 380.645C207.156 379.101 183.191 372.545 161.282 361.381C139.372 350.218 119.982 334.683 104.308 315.736L243 201L366.218 332.214Z" fill="#667586"/>
<path d="M366.218 332.214C348.293 349.047 327.109 362.029 303.973 370.359C280.837 378.688 256.239 382.189 231.698 380.645C207.156 379.101 183.191 372.545 161.282 361.381C139.372 350.218 119.982 334.683 104.308 315.736L243 201L366.218 332.214Z" stroke="white" stroke-width="4" mask="url(#path-2-outside-1_24_187)"/>
<mask id="path-3-outside-2_24_187" maskUnits="userSpaceOnUse" x="241" y="19" width="184" height="317" fill="black">
<rect fill="white" x="241" y="19" width="184" height="317"/>
<path d="M243 21C279.082 21 314.332 31.8442 344.175 52.1255C374.018 72.4068 397.077 101.189 410.36 134.738C423.643 168.286 426.536 205.052 418.665 240.266C410.794 275.479 392.521 307.514 366.218 332.214L243 201V21Z"/>
</mask>
<path d="M243 21C279.082 21 314.332 31.8442 344.175 52.1255C374.018 72.4068 397.077 101.189 410.36 134.738C423.643 168.286 426.536 205.052 418.665 240.266C410.794 275.479 392.521 307.514 366.218 332.214L243 201V21Z" fill="#1C4A90"/>
<path d="M243 21C279.082 21 314.332 31.8442 344.175 52.1255C374.018 72.4068 397.077 101.189 410.36 134.738C423.643 168.286 426.536 205.052 418.665 240.266C410.794 275.479 392.521 307.514 366.218 332.214L243 201V21Z" stroke="white" stroke-width="4" mask="url(#path-3-outside-2_24_187)"/>
<mask id="path-4-outside-3_24_187" maskUnits="userSpaceOnUse" x="241" y="19" width="184" height="317" fill="black">
<rect fill="white" x="241" y="19" width="184" height="317"/>
<path d="M243 21C279.082 21 314.332 31.8442 344.175 52.1255C374.018 72.4068 397.077 101.189 410.36 134.738C423.643 168.286 426.536 205.052 418.665 240.266C410.794 275.479 392.521 307.514 366.218 332.214L243 201V21Z"/>
</mask>
<path d="M243 21C279.082 21 314.332 31.8442 344.175 52.1255C374.018 72.4068 397.077 101.189 410.36 134.738C423.643 168.286 426.536 205.052 418.665 240.266C410.794 275.479 392.521 307.514 366.218 332.214L243 201V21Z" fill="#1C4A90"/>
<path d="M243 21C279.082 21 314.332 31.8442 344.175 52.1255C374.018 72.4068 397.077 101.189 410.36 134.738C423.643 168.286 426.536 205.052 418.665 240.266C410.794 275.479 392.521 307.514 366.218 332.214L243 201V21Z" stroke="white" stroke-width="4" mask="url(#path-4-outside-3_24_187)"/>
<mask id="path-5-outside-4_24_187" maskUnits="userSpaceOnUse" x="108" y="19" width="137" height="187" fill="black">
<rect fill="white" x="108" y="19" width="137" height="187"/>
<path d="M111.786 77.7815C128.619 59.8562 148.946 45.57 171.513 35.8042C194.081 26.0383 218.41 21 243 21V201L111.786 77.7815Z"/>
</mask>
<path d="M111.786 77.7815C128.619 59.8562 148.946 45.57 171.513 35.8042C194.081 26.0383 218.41 21 243 21V201L111.786 77.7815Z" fill="#D6E2F0"/>
<path d="M111.786 77.7815C128.619 59.8562 148.946 45.57 171.513 35.8042C194.081 26.0383 218.41 21 243 21V201L111.786 77.7815Z" stroke="white" stroke-width="4" mask="url(#path-5-outside-4_24_187)"/>
<mask id="path-6-outside-5_24_187" maskUnits="userSpaceOnUse" x="61" y="74" width="186" height="245" fill="black">
<rect fill="white" x="61" y="74" width="186" height="245"/>
<path d="M104.308 315.736C76.3682 281.963 61.712 239.156 63.0888 195.346C64.4656 151.536 81.7807 109.734 111.786 77.7816L243 201L104.308 315.736Z"/>
</mask>
<path d="M104.308 315.736C76.3682 281.963 61.712 239.156 63.0888 195.346C64.4656 151.536 81.7807 109.734 111.786 77.7816L243 201L104.308 315.736Z" fill="#7688A3"/>
<path d="M104.308 315.736C76.3682 281.963 61.712 239.156 63.0888 195.346C64.4656 151.536 81.7807 109.734 111.786 77.7816L243 201L104.308 315.736Z" stroke="white" stroke-width="4" mask="url(#path-6-outside-5_24_187)"/>
<g filter="url(#filter1_i_24_187)">
<circle cx="243" cy="201" r="120" fill="white"/>
</g>
<path d="M174.699 177.844V179.777H172.98V185.277C173.689 185.234 174.387 185.17 175.064 185.084V183.344H177.728V181.668H175.064V179.756H177.728V176.49H180.113V188.393H177.728V185.256H175.128L175.214 186.846C171.519 187.447 167.222 187.533 164.128 187.533L163.871 185.557C164.547 185.557 165.289 185.557 166.062 185.535V179.777H164.365V177.844H174.699ZM173.539 188.736C177.685 188.736 180.177 190.025 180.177 192.324C180.177 194.559 177.685 195.891 173.539 195.891C169.414 195.891 166.921 194.559 166.943 192.324C166.921 190.025 169.414 188.736 173.539 188.736ZM173.539 190.562C170.832 190.562 169.306 191.164 169.306 192.324C169.306 193.441 170.832 194.043 173.539 194.043C176.267 194.043 177.793 193.441 177.793 192.324C177.793 191.164 176.267 190.562 173.539 190.562ZM168.382 185.514C169.134 185.492 169.908 185.46 170.681 185.428V179.777H168.382V185.514ZM193.358 178.188V180.1H191.661V185.836C192.51 185.782 193.337 185.696 194.132 185.6L194.304 187.361C190.394 188.006 185.925 188.092 182.638 188.092L182.38 186.158C183.078 186.158 183.83 186.147 184.614 186.137V180.1H182.895V178.188H193.358ZM197.741 176.512V182.119H200.448V184.117H197.741V190.799H195.356V176.512H197.741ZM198.515 193.592V195.525H185.302V189.445H187.686V193.592H198.515ZM186.913 186.072C187.708 186.062 188.524 186.029 189.341 185.986V180.1H186.913V186.072ZM218.743 191.615V193.57H200.996V191.615H208.666V187.146H211.051V191.615H218.743ZM217.217 178.059V180.014H211.094C211.169 182.807 214.048 185.374 218.034 185.965L217.088 187.855C213.801 187.254 211.116 185.524 209.87 183.107C208.613 185.557 205.949 187.351 202.715 187.963L201.77 186.072C205.648 185.417 208.505 182.807 208.58 180.014H202.479V178.059H217.217ZM235.748 176.49V195.912H233.363V176.49H235.748ZM219.656 190.52C221.203 190.509 222.954 190.509 224.791 190.455V188.672C222.599 188.328 221.181 186.985 221.181 185.148C221.181 182.957 223.115 181.496 225.951 181.496C228.808 181.496 230.785 182.957 230.785 185.148C230.785 186.975 229.356 188.307 227.176 188.65V190.369C228.884 190.294 230.602 190.154 232.224 189.939L232.396 191.723C228.121 192.453 223.502 192.496 220 192.496L219.656 190.52ZM231.881 178.725V180.615H220.064V178.725H224.791V176.555H227.176V178.725H231.881ZM225.951 183.322C224.49 183.344 223.437 184.01 223.459 185.148C223.437 186.266 224.49 186.932 225.951 186.91C227.476 186.932 228.486 186.266 228.486 185.148C228.486 184.01 227.476 183.344 225.951 183.322ZM259.639 176.49V195.912H257.362V186.008H255.171V194.924H252.979V176.855H255.171V184.096H257.362V176.49H259.639ZM250.788 178.789V180.723H245.932V189.359C248.049 189.338 249.789 189.23 251.755 188.865L251.926 190.82C249.585 191.293 247.544 191.357 244.837 191.379H243.526V178.789H250.788ZM268.373 179.584C268.373 182.033 269.963 184.332 272.949 185.277L271.66 187.146C269.566 186.438 268.062 185.02 267.235 183.215C266.375 185.277 264.807 186.899 262.572 187.684L261.283 185.814C264.42 184.719 265.967 182.141 265.988 179.369V177.521H268.373V179.584ZM276.817 176.49V181.217H279.524V183.193H276.817V188.113H274.432V176.49H276.817ZM270.5 188.543C274.518 188.521 276.988 189.896 277.01 192.195C276.988 194.537 274.518 195.891 270.5 195.891C266.44 195.891 263.926 194.537 263.926 192.195C263.926 189.896 266.44 188.521 270.5 188.543ZM270.5 190.412C267.836 190.412 266.311 191.057 266.311 192.195C266.311 193.398 267.836 194 270.5 194C273.164 194 274.647 193.398 274.647 192.195C274.647 191.057 273.164 190.412 270.5 190.412ZM301.009 176.49V195.934H298.603V176.49H301.009ZM288.269 178.08V182.936H292.974V178.08H295.337V191.357H285.884V178.08H288.269ZM288.269 189.402H292.974V184.805H288.269V189.402ZM312.256 176.684C316.682 176.684 319.239 177.865 319.26 180.014C319.239 182.184 316.682 183.344 312.256 183.365C307.831 183.344 305.252 182.184 305.252 180.014C305.252 177.865 307.831 176.684 312.256 176.684ZM312.256 178.467C309.291 178.467 307.745 179.004 307.766 180.014C307.745 181.088 309.291 181.582 312.256 181.604C315.264 181.582 316.79 181.088 316.79 180.014C316.79 179.004 315.264 178.467 312.256 178.467ZM321.129 184.289V186.18H316.532V187.727H318.916V192.475H307.874V193.914H319.454V195.74H305.532V190.777H316.575V189.488H305.51V187.727H308.002V186.18H303.426V184.289H321.129ZM310.366 187.727H314.147V186.18H310.366V187.727Z" fill="#202021"/>
<path d="M196.299 218.148C196.316 214.826 197.213 212.066 198.83 209.729H200.166C198.971 211.469 197.863 215.02 197.863 218.148C197.863 221.277 198.971 224.846 200.166 226.586H198.83C197.213 224.23 196.316 221.471 196.299 218.148ZM207.031 217.041V219.906C208.533 219.845 210.072 219.713 211.513 219.502L211.618 220.521C208.05 221.172 204.2 221.189 201.388 221.189L201.195 220.047C202.504 220.038 204.051 220.029 205.677 219.977V217.041H207.031ZM210.704 210.854V211.996H207.031C207.066 214.018 208.744 215.661 211.056 216.32L210.406 217.41C208.525 216.848 207.057 215.644 206.363 214.053C205.677 215.731 204.218 216.979 202.337 217.551L201.669 216.496C203.981 215.819 205.607 214.105 205.642 211.996H202.056V210.854H205.677V208.92H207.031V210.854H210.704ZM213.921 208.797V224.459H212.55V208.797H213.921ZM228.731 209.746V210.959C228.731 212.269 228.731 213.859 228.327 215.986H230.612V217.146H216.303V215.986H226.938C227.36 213.824 227.36 212.295 227.36 210.959V210.871H218.114V209.746H228.731ZM229.206 222.912V224.072H218.202V218.904H219.573V222.912H229.206ZM240.368 223.176C238.066 223.176 236.326 221.752 236.238 219.801H237.767C237.89 220.943 238.997 221.787 240.368 221.787C242.021 221.787 243.216 220.574 243.216 218.975C243.216 217.322 241.968 216.109 240.263 216.092C239.191 216.074 238.365 216.408 237.89 217.234H236.361L237.257 210.273H244.148V211.68H238.576L238.101 215.406H238.224C238.786 214.967 239.648 214.668 240.544 214.668C242.97 214.668 244.763 216.461 244.763 218.939C244.763 221.4 242.9 223.176 240.368 223.176ZM258.993 208.814V220.381H257.604V214.967H253.104V213.859H257.604V211.979H253.104V210.871H257.604V208.814H258.993ZM259.415 222.93V224.09H248.921V219.396H250.309V222.93H259.415ZM248.358 209.939V216.883C250.511 216.874 252.586 216.76 254.967 216.32L255.108 217.463C252.559 217.938 250.432 218.043 248.147 218.061H246.969V209.939H248.358ZM263.801 221.822L262.43 226.604H261.129L262.096 221.822H263.801ZM272.889 216.18C271.237 216.18 270.341 214.949 270.341 213.121C270.341 211.328 271.272 210.08 272.889 210.08C274.559 210.08 275.438 211.328 275.438 213.121C275.438 214.949 274.524 216.18 272.889 216.18ZM272.889 215.09C273.751 215.09 274.155 214.316 274.155 213.121C274.155 211.943 273.786 211.152 272.889 211.17C272.046 211.17 271.624 211.943 271.624 213.121C271.624 214.316 272.046 215.09 272.889 215.09ZM280.659 223.176C279.007 223.193 278.093 221.945 278.11 220.135C278.093 218.324 279.042 217.076 280.659 217.076C282.311 217.076 283.19 218.324 283.19 220.135C283.19 221.945 282.276 223.193 280.659 223.176ZM280.659 222.086C281.503 222.086 281.907 221.312 281.907 220.135C281.907 218.939 281.538 218.148 280.659 218.166C279.815 218.184 279.376 218.939 279.376 220.135C279.376 221.312 279.798 222.086 280.659 222.086ZM271.589 223L280.343 210.273H281.766L273.012 223H271.589ZM288.701 218.148C288.684 221.471 287.787 224.23 286.17 226.586H284.834C286.029 224.846 287.137 221.277 287.137 218.148C287.137 215.02 286.029 211.469 284.834 209.729H286.17C287.787 212.066 288.684 214.826 288.701 218.148Z" fill="#636365"/>
</g>
</g>
<circle cx="493" cy="130.5" r="10" fill="#1C4A90"/>
<path d="M522.299 124.537V125.346C522.281 126.576 522.281 128.65 521.842 131.551L520.453 131.428C520.875 128.809 520.91 126.91 520.91 125.662H514.354V124.537H522.299ZM518.203 129.002V133.748C519.935 133.687 521.71 133.572 523.336 133.379L523.406 134.416C520.119 134.926 516.445 134.996 513.65 134.979L513.475 133.836C514.503 133.827 515.646 133.818 516.85 133.783V129.002H518.203ZM525.691 122.797V129.336H528.223V130.531H525.691V138.424H524.32V122.797H525.691ZM534.033 127.895C534.033 130.391 535.667 132.957 537.935 134.047L537.126 135.119C535.404 134.275 534.041 132.57 533.4 130.549C532.714 132.72 531.264 134.539 529.48 135.4L528.689 134.328C530.974 133.256 532.679 130.584 532.697 127.895V126.646H529.111V125.521H532.679V123.096H534.068V125.521H537.583V126.646H534.033V127.895ZM540.923 122.797V129.213H543.542V130.391H540.923V138.424H539.552V122.797H540.923ZM549.317 125.768C549.317 127.807 550.846 129.635 553.149 130.391L552.499 131.48C550.697 130.892 549.335 129.644 548.667 128.07C547.99 129.863 546.549 131.261 544.676 131.938L543.973 130.83C546.311 130.039 547.946 128.018 547.964 125.768V125.1H544.395V123.957H552.833V125.1H549.317V125.768ZM556.243 122.797V126.787H558.598V127.947H556.243V132.236H554.872V122.797H556.243ZM551.233 132.658C554.45 132.658 556.384 133.713 556.384 135.506C556.384 137.334 554.45 138.389 551.233 138.389C548.016 138.389 546.048 137.334 546.048 135.506C546.048 133.713 548.016 132.658 551.233 132.658ZM551.233 133.766C548.878 133.766 547.419 134.416 547.436 135.506C547.419 136.631 548.878 137.281 551.233 137.281C553.606 137.281 555.048 136.631 555.048 135.506C555.048 134.416 553.606 133.766 551.233 133.766ZM562.457 131.744V133.818H570.279V131.744H571.65V138.213H561.086V131.744H562.457ZM562.457 137.088H570.279V134.908H562.457V137.088ZM571.65 123.518V124.66C571.65 125.855 571.65 127.244 571.229 129.195H573.531V130.338H559.223V129.195H569.875C570.279 127.253 570.279 125.855 570.279 124.66H561.033V123.518H571.65ZM575.386 132.148C575.404 128.826 576.3 126.066 577.917 123.729H579.253C578.058 125.469 576.951 129.02 576.951 132.148C576.951 135.277 578.058 138.846 579.253 140.586H577.917C576.3 138.23 575.404 135.471 575.386 132.148ZM585.151 137.176C582.62 137.176 580.809 135.822 580.721 133.801H582.321C582.409 135.014 583.622 135.77 585.134 135.77C586.804 135.77 588.034 134.855 588.034 133.537C588.034 132.148 586.927 131.164 584.94 131.164H583.903V129.775H584.94C586.487 129.775 587.559 128.914 587.559 127.596C587.559 126.33 586.628 125.469 585.186 125.469C583.833 125.469 582.585 126.225 582.514 127.473H580.985C581.073 125.451 582.936 124.098 585.204 124.098C587.63 124.098 589.106 125.68 589.089 127.508C589.106 128.949 588.262 130.021 586.927 130.391V130.479C588.579 130.742 589.598 131.92 589.581 133.537C589.598 135.629 587.682 137.176 585.151 137.176ZM595.76 137.176C593.088 137.176 591.225 135.699 591.242 133.625C591.225 131.973 592.367 130.619 593.826 130.391V130.32C592.561 130.021 591.735 128.861 591.735 127.473C591.735 125.521 593.44 124.098 595.76 124.098C598.08 124.098 599.785 125.521 599.803 127.473C599.785 128.861 598.942 130.021 597.694 130.32V130.391C599.135 130.619 600.277 131.973 600.295 133.625C600.277 135.699 598.414 137.176 595.76 137.176ZM595.76 135.787C597.588 135.787 598.713 134.873 598.713 133.537C598.713 132.131 597.465 131.094 595.76 131.094C594.055 131.094 592.789 132.131 592.824 133.537C592.789 134.873 593.932 135.787 595.76 135.787ZM595.76 129.758C597.201 129.758 598.256 128.879 598.256 127.596C598.256 126.33 597.254 125.469 595.76 125.469C594.248 125.469 593.264 126.33 593.264 127.596C593.264 128.879 594.301 129.758 595.76 129.758ZM604.751 130.18C603.099 130.18 602.203 128.949 602.203 127.121C602.203 125.328 603.134 124.08 604.751 124.08C606.421 124.08 607.3 125.328 607.3 127.121C607.3 128.949 606.386 130.18 604.751 130.18ZM604.751 129.09C605.613 129.09 606.017 128.316 606.017 127.121C606.017 125.943 605.648 125.152 604.751 125.17C603.908 125.17 603.486 125.943 603.486 127.121C603.486 128.316 603.908 129.09 604.751 129.09ZM612.521 137.176C610.869 137.193 609.955 135.945 609.972 134.135C609.955 132.324 610.904 131.076 612.521 131.076C614.173 131.076 615.052 132.324 615.052 134.135C615.052 135.945 614.138 137.193 612.521 137.176ZM612.521 136.086C613.365 136.086 613.769 135.312 613.769 134.135C613.769 132.939 613.4 132.148 612.521 132.166C611.677 132.184 611.238 132.939 611.238 134.135C611.238 135.312 611.66 136.086 612.521 136.086ZM603.451 137L612.205 124.273H613.628L604.875 137H603.451ZM620.563 132.148C620.546 135.471 619.649 138.23 618.032 140.586H616.696C617.891 138.846 618.999 135.277 618.999 132.148C618.999 129.02 617.891 125.469 616.696 123.729H618.032C619.649 126.066 620.546 128.826 620.563 132.148Z" fill="#636365"/>
<circle cx="493" cy="177.5" r="10" fill="#667586"/>
<path d="M526.535 169.814V178.744H525.164V169.814H526.535ZM526.535 179.588V185.213H516.375V179.588H526.535ZM517.729 180.713V184.088H525.182V180.713H517.729ZM518.098 170.641C520.471 170.641 522.193 172.117 522.193 174.297C522.193 176.441 520.471 177.936 518.098 177.936C515.725 177.936 514.002 176.441 514.002 174.297C514.002 172.117 515.725 170.641 518.098 170.641ZM518.098 171.818C516.498 171.801 515.338 172.838 515.355 174.297C515.338 175.738 516.498 176.758 518.098 176.758C519.68 176.758 520.84 175.738 520.84 174.297C520.84 172.838 519.68 171.801 518.098 171.818ZM541.714 169.814V181.68H540.326V180.062H537.091V179.061H540.326V169.814H541.714ZM542.101 183.93V185.09H530.992V180.52H532.38V183.93H542.101ZM528.742 177.057C531.66 177.039 535.562 177.021 538.919 176.6L539.007 177.602C537.61 177.821 536.151 177.962 534.718 178.041V181.135H533.329V178.111C531.747 178.182 530.244 178.19 528.935 178.182L528.742 177.057ZM533.874 170.447C536.16 170.447 537.724 171.537 537.742 173.172C537.724 174.842 536.16 175.879 533.874 175.879C531.572 175.879 530.007 174.842 530.007 173.172C530.007 171.537 531.572 170.447 533.874 170.447ZM533.874 171.502C532.345 171.484 531.308 172.17 531.326 173.172C531.308 174.191 532.345 174.859 533.874 174.859C535.351 174.859 536.406 174.191 536.423 173.172C536.406 172.17 535.351 171.484 533.874 171.502ZM547.26 178.744V180.818H555.083V178.744H556.454V185.213H545.889V178.744H547.26ZM547.26 184.088H555.083V181.908H547.26V184.088ZM556.454 170.518V171.66C556.454 172.855 556.454 174.244 556.032 176.195H558.335V177.338H544.026V176.195H554.678C555.083 174.253 555.083 172.855 555.083 171.66H545.837V170.518H556.454ZM560.19 179.148C560.207 175.826 561.104 173.066 562.721 170.729H564.057C562.861 172.469 561.754 176.02 561.754 179.148C561.754 182.277 562.861 185.846 564.057 187.586H562.721C561.104 185.23 560.207 182.471 560.19 179.148ZM565.56 184L565.542 182.84L569.884 178.27C571.396 176.67 572.117 175.809 572.117 174.631C572.117 173.33 571.009 172.469 569.585 172.469C568.074 172.469 567.107 173.436 567.107 174.859H565.613C565.595 172.609 567.335 171.098 569.638 171.098C571.941 171.098 573.593 172.645 573.593 174.631C573.593 176.055 572.925 177.162 570.675 179.482L567.757 182.488V182.594H573.822V184H565.56ZM580.194 184.176C577.979 184.141 575.554 182.84 575.554 178.129C575.554 173.629 577.399 171.098 580.388 171.098C582.62 171.098 584.184 172.469 584.518 174.473H582.954C582.655 173.348 581.811 172.504 580.388 172.504C578.296 172.504 577.048 174.297 577.048 177.355H577.206C577.944 176.301 579.104 175.668 580.475 175.668C582.743 175.668 584.624 177.426 584.624 179.887C584.624 182.277 582.866 184.193 580.194 184.176ZM580.194 182.787C581.846 182.787 583.077 181.486 583.095 179.904C583.077 178.34 581.899 177.057 580.229 177.057C578.559 177.057 577.276 178.41 577.259 179.922C577.259 181.416 578.489 182.787 580.194 182.787ZM589.133 177.18C587.481 177.18 586.584 175.949 586.584 174.121C586.584 172.328 587.516 171.08 589.133 171.08C590.803 171.08 591.682 172.328 591.682 174.121C591.682 175.949 590.768 177.18 589.133 177.18ZM589.133 176.09C589.994 176.09 590.399 175.316 590.399 174.121C590.399 172.943 590.029 172.152 589.133 172.17C588.289 172.17 587.867 172.943 587.867 174.121C587.867 175.316 588.289 176.09 589.133 176.09ZM596.902 184.176C595.25 184.193 594.336 182.945 594.354 181.135C594.336 179.324 595.285 178.076 596.902 178.076C598.555 178.076 599.434 179.324 599.434 181.135C599.434 182.945 598.52 184.193 596.902 184.176ZM596.902 183.086C597.746 183.086 598.151 182.312 598.151 181.135C598.151 179.939 597.781 179.148 596.902 179.166C596.059 179.184 595.619 179.939 595.619 181.135C595.619 182.312 596.041 183.086 596.902 183.086ZM587.832 184L596.586 171.273H598.01L589.256 184H587.832ZM604.945 179.148C604.927 182.471 604.031 185.23 602.414 187.586H601.078C602.273 185.846 603.38 182.277 603.38 179.148C603.38 176.02 602.273 172.469 601.078 170.729H602.414C604.031 173.066 604.927 175.826 604.945 179.148Z" fill="#636365"/>
<circle cx="493" cy="224.5" r="10" fill="#7688A3"/>
<path d="M527.924 226.078V227.203H521.402V232.424H520.049V227.203H513.615V226.078H527.924ZM516.814 217.447V219.609H524.689V217.447H526.078V224.18H515.443V217.447H516.814ZM516.814 223.055H524.689V220.734H516.814V223.055ZM534.12 219.768C534.12 221.807 535.65 223.635 537.953 224.391L537.302 225.48C535.5 224.892 534.138 223.644 533.47 222.07C532.793 223.863 531.352 225.261 529.48 225.938L528.777 224.83C531.115 224.039 532.749 222.018 532.767 219.768V219.1H529.199V217.957H537.636V219.1H534.12V219.768ZM541.046 216.797V220.787H543.402V221.947H541.046V226.236H539.675V216.797H541.046ZM536.036 226.658C539.253 226.658 541.187 227.713 541.187 229.506C541.187 231.334 539.253 232.389 536.036 232.389C532.82 232.389 530.851 231.334 530.851 229.506C530.851 227.713 532.82 226.658 536.036 226.658ZM536.036 227.766C533.681 227.766 532.222 228.416 532.24 229.506C532.222 230.631 533.681 231.281 536.036 231.281C538.41 231.281 539.851 230.631 539.851 229.506C539.851 228.416 538.41 227.766 536.036 227.766ZM547.26 225.744V227.818H555.083V225.744H556.454V232.213H545.889V225.744H547.26ZM547.26 231.088H555.083V228.908H547.26V231.088ZM556.454 217.518V218.66C556.454 219.855 556.454 221.244 556.032 223.195H558.335V224.338H544.026V223.195H554.678C555.083 221.253 555.083 219.855 555.083 218.66H545.837V217.518H556.454ZM560.19 226.148C560.207 222.826 561.104 220.066 562.721 217.729H564.057C562.861 219.469 561.754 223.02 561.754 226.148C561.754 229.277 562.861 232.846 564.057 234.586H562.721C561.104 232.23 560.207 229.471 560.19 226.148ZM565.56 231L565.542 229.84L569.884 225.27C571.396 223.67 572.117 222.809 572.117 221.631C572.117 220.33 571.009 219.469 569.585 219.469C568.074 219.469 567.107 220.436 567.107 221.859H565.613C565.595 219.609 567.335 218.098 569.638 218.098C571.941 218.098 573.593 219.645 573.593 221.631C573.593 223.055 572.925 224.162 570.675 226.482L567.757 229.488V229.594H573.822V231H565.56ZM580.159 231.176C577.628 231.176 575.817 229.822 575.729 227.801H577.329C577.417 229.014 578.63 229.77 580.141 229.77C581.811 229.77 583.042 228.855 583.042 227.537C583.042 226.148 581.934 225.164 579.948 225.164H578.911V223.775H579.948C581.495 223.775 582.567 222.914 582.567 221.596C582.567 220.33 581.636 219.469 580.194 219.469C578.841 219.469 577.593 220.225 577.522 221.473H575.993C576.081 219.451 577.944 218.098 580.212 218.098C582.638 218.098 584.114 219.68 584.096 221.508C584.114 222.949 583.27 224.021 581.934 224.391V224.479C583.587 224.742 584.606 225.92 584.589 227.537C584.606 229.629 582.69 231.176 580.159 231.176ZM589.203 224.18C587.551 224.18 586.654 222.949 586.654 221.121C586.654 219.328 587.586 218.08 589.203 218.08C590.873 218.08 591.752 219.328 591.752 221.121C591.752 222.949 590.838 224.18 589.203 224.18ZM589.203 223.09C590.065 223.09 590.469 222.316 590.469 221.121C590.469 219.943 590.1 219.152 589.203 219.17C588.36 219.17 587.938 219.943 587.938 221.121C587.938 222.316 588.36 223.09 589.203 223.09ZM596.973 231.176C595.32 231.193 594.406 229.945 594.424 228.135C594.406 226.324 595.356 225.076 596.973 225.076C598.625 225.076 599.504 226.324 599.504 228.135C599.504 229.945 598.59 231.193 596.973 231.176ZM596.973 230.086C597.817 230.086 598.221 229.312 598.221 228.135C598.221 226.939 597.852 226.148 596.973 226.166C596.129 226.184 595.69 226.939 595.69 228.135C595.69 229.312 596.111 230.086 596.973 230.086ZM587.902 231L596.656 218.273H598.08L589.326 231H587.902ZM605.015 226.148C604.998 229.471 604.101 232.23 602.484 234.586H601.148C602.343 232.846 603.451 229.277 603.451 226.148C603.451 223.02 602.343 219.469 601.148 217.729H602.484C604.101 220.066 604.998 222.826 605.015 226.148Z" fill="#636365"/>
<circle cx="493" cy="271.5" r="10" fill="#D6E2F0"/>
<path d="M526.992 263.797V279.424H525.674V271.232H523.371V278.615H522.105V264.148H523.371V270.09H525.674V263.797H526.992ZM520.066 265.713V266.855H515.584V274.379C517.737 274.37 519.231 274.291 520.963 273.939L521.086 275.1C519.205 275.486 517.605 275.557 515.215 275.557H514.213V265.713H520.066ZM541.732 263.797V279.459H540.361V263.797H541.732ZM536.986 265.256V270.811H531.15V274.502C533.743 274.502 536.054 274.388 538.849 273.939L538.99 275.1C536.107 275.557 533.734 275.662 531.044 275.662H529.744V269.686H535.597V266.398H529.708V265.256H536.986ZM556.911 263.797V279.459H555.522V263.797H556.911ZM548.596 265.01C550.917 265.027 552.587 267.137 552.587 270.459C552.587 273.781 550.917 275.891 548.596 275.891C546.259 275.891 544.606 273.781 544.606 270.459C544.606 267.137 546.259 265.027 548.596 265.01ZM548.596 266.24C547.032 266.258 545.942 267.91 545.942 270.459C545.942 273.008 547.032 274.66 548.596 274.66C550.161 274.66 551.251 273.008 551.251 270.459C551.251 267.91 550.161 266.258 548.596 266.24ZM571.316 263.797V270.248H573.936V271.391H571.316V279.424H569.945V263.797H571.316ZM568.434 266.311V267.453H559.135V266.311H563.16V263.99H564.531V266.311H568.434ZM563.863 268.754C566.078 268.754 567.678 270.23 567.695 272.34C567.678 274.449 566.078 275.926 563.863 275.926C561.631 275.926 560.014 274.449 560.031 272.34C560.014 270.23 561.631 268.754 563.863 268.754ZM563.863 269.914C562.404 269.914 561.332 270.934 561.35 272.34C561.332 273.764 562.404 274.766 563.863 274.748C565.305 274.766 566.359 273.764 566.377 272.34C566.359 270.934 565.305 269.914 563.863 269.914ZM575.386 273.148C575.404 269.826 576.3 267.066 577.917 264.729H579.253C578.058 266.469 576.951 270.02 576.951 273.148C576.951 276.277 578.058 279.846 579.253 281.586H577.917C576.3 279.23 575.404 276.471 575.386 273.148ZM585.257 265.273V278H583.657V266.926H583.587L580.493 268.982V267.383L583.657 265.273H585.257ZM592.684 278.176C590.152 278.176 588.342 276.822 588.254 274.801H589.854C589.942 276.014 591.154 276.77 592.666 276.77C594.336 276.77 595.567 275.855 595.567 274.537C595.567 273.148 594.459 272.164 592.473 272.164H591.436V270.775H592.473C594.02 270.775 595.092 269.914 595.092 268.596C595.092 267.33 594.16 266.469 592.719 266.469C591.365 266.469 590.117 267.225 590.047 268.473H588.518C588.606 266.451 590.469 265.098 592.736 265.098C595.162 265.098 596.639 266.68 596.621 268.508C596.639 269.949 595.795 271.021 594.459 271.391V271.479C596.111 271.742 597.131 272.92 597.113 274.537C597.131 276.629 595.215 278.176 592.684 278.176ZM601.728 271.18C600.076 271.18 599.179 269.949 599.179 268.121C599.179 266.328 600.111 265.08 601.728 265.08C603.398 265.08 604.277 266.328 604.277 268.121C604.277 269.949 603.363 271.18 601.728 271.18ZM601.728 270.09C602.589 270.09 602.994 269.316 602.994 268.121C602.994 266.943 602.625 266.152 601.728 266.17C600.884 266.17 600.462 266.943 600.462 268.121C600.462 269.316 600.884 270.09 601.728 270.09ZM609.498 278.176C607.845 278.193 606.931 276.945 606.949 275.135C606.931 273.324 607.88 272.076 609.498 272.076C611.15 272.076 612.029 273.324 612.029 275.135C612.029 276.945 611.115 278.193 609.498 278.176ZM609.498 277.086C610.341 277.086 610.746 276.312 610.746 275.135C610.746 273.939 610.376 273.148 609.498 273.166C608.654 273.184 608.214 273.939 608.214 275.135C608.214 276.312 608.636 277.086 609.498 277.086ZM600.427 278L609.181 265.273H610.605L601.851 278H600.427ZM617.54 273.148C617.522 276.471 616.626 279.23 615.009 281.586H613.673C614.868 279.846 615.975 276.277 615.975 273.148C615.975 270.02 614.868 266.469 613.673 264.729H615.009C616.626 267.066 617.522 269.826 617.54 273.148Z" fill="#636365"/>
<defs>
<filter id="filter0_d_24_187" x="0" y="0" width="444" height="444" filterUnits="userSpaceOnUse" color-interpolation-filters="sRGB">
<feFlood flood-opacity="0" result="BackgroundImageFix"/>
<feColorMatrix in="SourceAlpha" type="matrix" values="0 0 0 0 0 0 0 0 0 0 0 0 0 0 0 0 0 0 127 0" result="hardAlpha"/>
<feOffset dx="-21" dy="21"/>
<feGaussianBlur stdDeviation="21"/>
<feComposite in2="hardAlpha" operator="out"/>
<feColorMatrix type="matrix" values="0 0 0 0 0.666667 0 0 0 0 0.690196 0 0 0 0 0.737255 0 0 0 0.6 0"/>
<feBlend mode="normal" in2="BackgroundImageFix" result="effect1_dropShadow_24_187"/>
<feBlend mode="normal" in="SourceGraphic" in2="effect1_dropShadow_24_187" result="shape"/>
</filter>
<filter id="filter1_i_24_187" x="102" y="81" width="261" height="261" filterUnits="userSpaceOnUse" color-interpolation-filters="sRGB">
<feFlood flood-opacity="0" result="BackgroundImageFix"/>
<feBlend mode="normal" in="SourceGraphic" in2="BackgroundImageFix" result="shape"/>
<feColorMatrix in="SourceAlpha" type="matrix" values="0 0 0 0 0 0 0 0 0 0 0 0 0 0 0 0 0 0 127 0" result="hardAlpha"/>
<feOffset dx="-21" dy="21"/>
<feGaussianBlur stdDeviation="21"/>
<feComposite in2="hardAlpha" operator="arithmetic" k2="-1" k3="1"/>
<feColorMatrix type="matrix" values="0 0 0 0 0.666667 0 0 0 0 0.690196 0 0 0 0 0.737255 0 0 0 0.3 0"/>
<feBlend mode="normal" in2="shape" result="effect1_innerShadow_24_187"/>
</filter>
<clipPath id="clip0_24_187">
<rect x="63" y="21" width="360" height="360" rx="180" fill="white"/>
</clipPath>
</defs>
</svg>
