<svg width="24" height="24" viewBox="0 0 24 24" fill="none" xmlns="http://www.w3.org/2000/svg">
<mask id="mask0_95_1381" style="mask-type:alpha" maskUnits="userSpaceOnUse" x="0" y="0" width="24" height="24">
<rect width="24" height="24" fill="#D9D9D9"/>
</mask>
<g mask="url(#mask0_95_1381)">
<path d="M16.1441 7.80375L6.81132 17.127C6.67282 17.2653 6.49882 17.3329 6.28932 17.3298C6.07965 17.3266 5.90557 17.2558 5.76707 17.1173C5.62874 16.9788 5.55957 16.8063 5.55957 16.6C5.55957 16.3937 5.62874 16.2213 5.76707 16.0828L15.0903 6.75H6.89407C6.68157 6.75 6.5034 6.67808 6.35957 6.53425C6.2159 6.39042 6.14407 6.21225 6.14407 5.99975C6.14407 5.78708 6.2159 5.609 6.35957 5.4655C6.5034 5.32183 6.68157 5.25 6.89407 5.25H16.7401C16.9962 5.25 17.2109 5.33658 17.3841 5.50975C17.5574 5.68308 17.6441 5.89775 17.6441 6.15375V16C17.6441 16.2125 17.5722 16.3906 17.4283 16.5343C17.2845 16.6781 17.1063 16.75 16.8938 16.75C16.6812 16.75 16.503 16.6781 16.3593 16.5343C16.2158 16.3906 16.1441 16.2125 16.1441 16V7.80375Z" fill="#1C4A90"/>
</g>
</svg>
