<svg width="16" height="16" viewBox="0 0 16 16" fill="none" xmlns="http://www.w3.org/2000/svg">
<mask id="mask0_148_1644" style="mask-type:alpha" maskUnits="userSpaceOnUse" x="0" y="0" width="16" height="16">
<rect width="16" height="16" fill="#D9D9D9"/>
</mask>
<g mask="url(#mask0_148_1644)">
<path d="M10.7624 5.2025L4.54055 11.418C4.44822 11.5102 4.33222 11.5553 4.19255 11.5532C4.05278 11.5511 3.93672 11.5038 3.84439 11.4115C3.75217 11.3192 3.70605 11.2042 3.70605 11.0667C3.70605 10.9291 3.75217 10.8142 3.84439 10.7218L10.0599 4.5H4.59572C4.45405 4.5 4.33528 4.45206 4.23939 4.35617C4.14361 4.26028 4.09572 4.1415 4.09572 3.99983C4.09572 3.85806 4.14361 3.73933 4.23939 3.64367C4.33528 3.54789 4.45405 3.5 4.59572 3.5H11.1597C11.3305 3.5 11.4736 3.55772 11.5891 3.67317C11.7046 3.78872 11.7624 3.93183 11.7624 4.1025V10.6667C11.7624 10.8083 11.7144 10.9271 11.6186 11.0228C11.5227 11.1187 11.4039 11.1667 11.2622 11.1667C11.1204 11.1667 11.0017 11.1187 10.9059 11.0228C10.8102 10.9271 10.7624 10.8083 10.7624 10.6667V5.2025Z" fill="#1C4A90"/>
</g>
</svg>
